<svg width="16" height="16" viewBox="0 0 16 16" fill="none" xmlns="http://www.w3.org/2000/svg">
<path d="M4.70179 2.40462C4.64165 2.34097 4.59463 2.2661 4.56342 2.18428C4.53221 2.10246 4.51742 2.0153 4.51989 1.92776C4.52237 1.84023 4.54206 1.75404 4.57785 1.67411C4.61363 1.59419 4.66481 1.5221 4.72846 1.46195C4.79211 1.40181 4.86698 1.35479 4.9488 1.32358C5.03062 1.29236 5.11778 1.27758 5.20532 1.28005C5.29285 1.28253 5.37904 1.30222 5.45896 1.33801C5.53889 1.37379 5.61098 1.42497 5.67113 1.48862L11.3378 7.48862C11.4548 7.6124 11.52 7.77628 11.52 7.94662C11.52 8.11696 11.4548 8.28084 11.3378 8.40462L5.67113 14.4053C5.61138 14.4703 5.5393 14.5228 5.45908 14.5598C5.37886 14.5967 5.2921 14.6174 5.20384 14.6205C5.11558 14.6237 5.02757 14.6092 4.94493 14.5781C4.8623 14.5469 4.78667 14.4996 4.72246 14.439C4.65825 14.3784 4.60672 14.3056 4.57088 14.2248C4.53503 14.1441 4.51558 14.0571 4.51366 13.9688C4.51174 13.8805 4.52738 13.7927 4.55968 13.7105C4.59197 13.6283 4.64028 13.5533 4.70179 13.49L9.93646 7.94662L4.70179 2.40462Z" fill="#D9D9D9"/>
</svg>
