<svg width="16" height="16" viewBox="0 0 16 16" fill="none" xmlns="http://www.w3.org/2000/svg">
<path d="M4.7013 2.40608C4.64116 2.34244 4.59414 2.26756 4.56293 2.18575C4.53172 2.10393 4.51693 2.01676 4.5194 1.92923C4.52188 1.84169 4.54157 1.7555 4.57736 1.67558C4.61315 1.59565 4.66432 1.52356 4.72797 1.46342C4.79162 1.40327 4.86649 1.35625 4.94831 1.32504C5.03013 1.29383 5.11729 1.27904 5.20483 1.28152C5.29236 1.28399 5.37855 1.30369 5.45848 1.33947C5.5384 1.37526 5.61049 1.42644 5.67064 1.49008L11.3373 7.49008C11.4543 7.61386 11.5195 7.77774 11.5195 7.94808C11.5195 8.11842 11.4543 8.2823 11.3373 8.40608L5.67064 14.4067C5.61089 14.4718 5.53881 14.5243 5.45859 14.5613C5.37838 14.5982 5.29162 14.6189 5.20335 14.622C5.11509 14.6251 5.02708 14.6107 4.94445 14.5795C4.86181 14.5484 4.78619 14.5011 4.72197 14.4405C4.65776 14.3798 4.60623 14.307 4.57039 14.2263C4.53454 14.1456 4.5151 14.0586 4.51317 13.9703C4.51125 13.882 4.52689 13.7942 4.55919 13.712C4.59148 13.6298 4.63979 13.5548 4.7013 13.4914L9.93597 7.94808L4.7013 2.40608Z" fill="#444444"/>
</svg>
