<svg width="10" height="10" viewBox="0 0 10 10" fill="none" xmlns="http://www.w3.org/2000/svg">
<g clip-path="url(#clip0_3824_9527)">
<path d="M3.34405 6.6937L8.39502 1.62003C8.51422 1.5003 8.65329 1.44043 8.81221 1.44043C8.97114 1.44043 9.11021 1.5003 9.2294 1.62003C9.3486 1.73976 9.4082 1.88204 9.4082 2.04688C9.4082 2.21171 9.3486 2.35379 9.2294 2.47312L3.76124 7.98083C3.64204 8.10056 3.50298 8.16043 3.34405 8.16043C3.18512 8.16043 3.04605 8.10056 2.92686 7.98083L0.364119 5.40658C0.244922 5.28684 0.187707 5.14476 0.192475 4.98033C0.197243 4.8159 0.259424 4.67361 0.379018 4.55348C0.498613 4.43335 0.640259 4.37348 0.803956 4.37388C0.967653 4.37428 1.1091 4.43415 1.2283 4.55348L3.34405 6.6937Z" fill="#FF5694"/>
</g>
<defs>
<clipPath id="clip0_3824_9527">
<rect width="9.6" height="9.6" fill="white"/>
</clipPath>
</defs>
</svg>
