<svg width="16" height="16" viewBox="0 0 16 16" fill="none" xmlns="http://www.w3.org/2000/svg">
<g clip-path="url(#clip0_1765_9815)">
<path d="M13.6531 2.34267C12.9108 1.59895 12.0289 1.00915 11.0581 0.607129C10.0872 0.205111 9.04657 -0.00121164 7.99578 5.35254e-06C3.57712 5.35254e-06 -0.00488281 3.58201 -0.00488281 8.00067C-0.00488281 10.21 0.891117 12.2107 2.33912 13.6587C3.08142 14.4024 3.96331 14.9922 4.93415 15.3942C5.90499 15.7962 6.94567 16.0026 7.99645 16.0013C12.4151 16.0013 15.9971 12.4193 15.9971 8.00067C15.9971 5.79134 15.1011 3.79067 13.6531 2.34267ZM12.6251 12.6273C12.0177 13.2358 11.2962 13.7183 10.5019 14.0473C9.70759 14.3763 8.85618 14.5453 7.99645 14.5447C4.38112 14.5447 1.45045 11.614 1.45045 7.99867C1.44977 7.13894 1.61879 6.28753 1.9478 5.49325C2.27682 4.69897 2.75937 3.97743 3.36778 3.37001C3.97513 2.76167 4.69656 2.27917 5.49072 1.95015C6.28488 1.62114 7.13617 1.45208 7.99578 1.45267C11.6104 1.45267 14.5411 4.38334 14.5411 7.99801C14.5417 8.85762 14.3726 9.70891 14.0436 10.5031C13.7146 11.2972 13.2321 12.0187 12.6238 12.626L12.6251 12.6273Z" fill="#444444"/>
<path d="M9.02503 8.00032L11.595 5.43032C11.7218 5.29214 11.7903 5.11033 11.7862 4.92285C11.7822 4.73537 11.7059 4.55671 11.5732 4.42415C11.4406 4.29159 11.2619 4.21539 11.0744 4.21145C10.8869 4.2075 10.7051 4.27612 10.567 4.40299L10.5677 4.40232L7.99769 6.97232L5.42769 4.40232C5.28951 4.27555 5.10771 4.20704 4.92023 4.21111C4.73275 4.21517 4.55408 4.29149 4.42152 4.42414C4.28897 4.55678 4.21276 4.73549 4.20882 4.92298C4.20488 5.11046 4.2735 5.29222 4.40036 5.43032L4.39969 5.42965L6.96969 7.99965L4.39969 10.5697C4.32739 10.636 4.26925 10.7163 4.22878 10.8057C4.18832 10.8951 4.16636 10.9917 4.16423 11.0898C4.16211 11.1879 4.17985 11.2855 4.21641 11.3765C4.25296 11.4676 4.30756 11.5503 4.37693 11.6197C4.44629 11.6891 4.52899 11.7438 4.62003 11.7804C4.71107 11.817 4.80858 11.8348 4.90669 11.8328C5.0048 11.8307 5.10147 11.8088 5.1909 11.7684C5.28032 11.728 5.36064 11.6699 5.42703 11.5977L5.42769 11.597L7.99769 9.02699L10.5677 11.597C10.634 11.6693 10.7143 11.7274 10.8037 11.7679C10.8931 11.8084 10.9898 11.8303 11.0879 11.8324C11.186 11.8346 11.2835 11.8168 11.3746 11.7803C11.4656 11.7437 11.5484 11.6891 11.6178 11.6198C11.6872 11.5504 11.7418 11.4677 11.7785 11.3767C11.8151 11.2856 11.8329 11.1881 11.8308 11.09C11.8288 10.9919 11.8069 10.8952 11.7665 10.8058C11.726 10.7164 11.668 10.636 11.5957 10.5697L11.595 10.569L9.02503 8.00032Z" fill="#444444"/>
</g>
<defs>
<clipPath id="clip0_1765_9815">
<rect width="16" height="16" fill="white"/>
</clipPath>
</defs>
</svg>
