<svg width="16" height="16" viewBox="0 0 16 16" fill="none" xmlns="http://www.w3.org/2000/svg">
<path d="M10.6897 2.00784C11.0487 1.64877 11.5308 1.43967 12.0383 1.42296C12.5457 1.40625 13.0405 1.58317 13.4224 1.91784L13.5184 2.00784L13.9897 2.47917C14.3486 2.83812 14.5576 3.32009 14.5743 3.82739C14.591 4.3347 14.4142 4.82938 14.0797 5.21117L13.9897 5.30717L6.51504 12.7825C6.40936 12.8882 6.28133 12.9688 6.14037 13.0185L6.03237 13.0498L3.06304 13.7352C2.959 13.7594 2.85067 13.7582 2.74717 13.7318C2.64367 13.7054 2.54803 13.6545 2.46831 13.5834C2.38859 13.5123 2.32712 13.4231 2.28908 13.3233C2.25103 13.2234 2.23753 13.116 2.24971 13.0098L2.26304 12.9345L2.94771 9.9645C2.98153 9.81883 3.0476 9.6826 3.14104 9.56583L3.21504 9.4825L10.6897 2.00784ZM10.2184 4.3645L4.22504 10.3578L3.80104 12.1965L5.63971 11.7718L11.633 5.7785L10.2184 4.3645ZM12.5757 2.9505C12.4609 2.83572 12.3082 2.76676 12.1462 2.75658C11.9841 2.74639 11.824 2.79567 11.6957 2.89517L11.633 2.9505L11.161 3.42184L12.5757 4.83584L13.047 4.3645C13.1618 4.24971 13.2308 4.09697 13.241 3.93496C13.2512 3.77294 13.2019 3.61277 13.1024 3.4845L13.047 3.42184L12.5757 2.9505Z" fill="#444444"/>
</svg>
