<svg xmlns="http://www.w3.org/2000/svg" width="16" height="16" viewBox="0 0 16 16" fill="none">
  <path d="M2.40462 4.7013C2.34097 4.64116 2.2661 4.59414 2.18428 4.56293C2.10246 4.53172 2.0153 4.51693 1.92776 4.5194C1.84023 4.52188 1.75404 4.54157 1.67411 4.57736C1.59419 4.61314 1.5221 4.66432 1.46195 4.72797C1.40181 4.79162 1.35479 4.86649 1.32358 4.94831C1.29236 5.03013 1.27758 5.11729 1.28005 5.20483C1.28253 5.29236 1.30222 5.37855 1.33801 5.45847C1.37379 5.5384 1.42497 5.61049 1.48862 5.67064L7.48862 11.3373C7.6124 11.4543 7.77628 11.5195 7.94662 11.5195C8.11696 11.5195 8.28084 11.4543 8.40462 11.3373L14.4053 5.67064C14.4703 5.61089 14.5228 5.53881 14.5598 5.45859C14.5967 5.37838 14.6174 5.29162 14.6205 5.20335C14.6237 5.11509 14.6092 5.02708 14.5781 4.94445C14.5469 4.86181 14.4996 4.78619 14.439 4.72197C14.3784 4.65776 14.3056 4.60623 14.2248 4.57039C14.1441 4.53454 14.0571 4.5151 13.9688 4.51317C13.8805 4.51125 13.7927 4.52689 13.7105 4.55919C13.6283 4.59148 13.5533 4.63979 13.49 4.7013L7.94662 9.93597L2.40462 4.7013Z" fill="#444444"/>
</svg>