<svg width="24" height="24" viewBox="0 0 24 24" fill="none" xmlns="http://www.w3.org/2000/svg">
<circle cx="12" cy="12" r="12" fill="#F2F2F2"/>
<g clip-path="url(#clip0_3713_13847)">
<path d="M16.4835 8.79836L13.2819 12L16.4835 15.2016C16.6533 15.3715 16.7487 15.6018 16.7487 15.842C16.7487 16.0821 16.6533 16.3125 16.4835 16.4823C16.3137 16.6521 16.0834 16.7475 15.8432 16.7475C15.603 16.7475 15.3727 16.6521 15.2029 16.4823L12.0012 13.2807L8.79957 16.4823C8.62975 16.6521 8.39942 16.7475 8.15925 16.7475C7.91908 16.7475 7.68874 16.6521 7.51892 16.4823C7.34909 16.3125 7.25369 16.0821 7.25369 15.842C7.25369 15.6018 7.34909 15.3715 7.51892 15.2016L10.7206 12L7.51892 8.79836C7.34909 8.62853 7.25369 8.3982 7.25369 8.15803C7.25369 7.91786 7.34909 7.68753 7.51892 7.5177C7.68874 7.34788 7.91908 7.25247 8.15925 7.25247C8.39942 7.25247 8.62975 7.34788 8.79957 7.5177L12.0012 10.7193L15.2029 7.5177C15.3727 7.34788 15.603 7.25247 15.8432 7.25247C16.0834 7.25247 16.3137 7.34788 16.4835 7.5177C16.6533 7.68753 16.7487 7.91786 16.7487 8.15803C16.7487 8.3982 16.6533 8.62853 16.4835 8.79836Z" fill="#ABABAB"/>
</g>
<defs>
<clipPath id="clip0_3713_13847">
<rect width="12" height="12" fill="white" transform="translate(6 6)"/>
</clipPath>
</defs>
</svg>
