<svg width="20" height="20" viewBox="0 0 20 20" fill="none" xmlns="http://www.w3.org/2000/svg">
<g clip-path="url(#clip0_2101_14971)">
<path d="M17.4722 4.66393L12.1361 10L17.4722 15.3361C17.7552 15.6191 17.9142 16.003 17.9142 16.4033C17.9142 16.8036 17.7552 17.1875 17.4722 17.4705C17.1891 17.7535 16.8052 17.9125 16.4049 17.9125C16.0047 17.9125 15.6208 17.7535 15.3377 17.4705L10.0017 12.1344L4.66559 17.4705C4.38255 17.7535 3.99866 17.9125 3.59838 17.9125C3.19809 17.9125 2.81421 17.7535 2.53116 17.4705C2.24812 17.1875 2.08911 16.8036 2.08911 16.4033C2.08911 16.003 2.24812 15.6191 2.53116 15.3361L7.86723 10L2.53116 4.66393C2.24812 4.38089 2.08911 3.997 2.08911 3.59672C2.08911 3.19644 2.24812 2.81255 2.53116 2.5295C2.81421 2.24646 3.19809 2.08745 3.59838 2.08745C3.99866 2.08745 4.38255 2.24646 4.66559 2.52951L10.0017 7.86557L15.3377 2.5295C15.6208 2.24646 16.0047 2.08745 16.4049 2.08745C16.8052 2.08745 17.1891 2.24646 17.4722 2.5295C17.7552 2.81255 17.9142 3.19643 17.9142 3.59672C17.9142 3.997 17.7552 4.38089 17.4722 4.66393Z" fill="#444444"/>
</g>
<defs>
<clipPath id="clip0_2101_14971">
<rect width="20" height="20" fill="white"/>
</clipPath>
</defs>
</svg>
