<svg width="20" height="20" viewBox="0 0 20 20" fill="none" xmlns="http://www.w3.org/2000/svg">
<path d="M13.3622 2.5137C13.811 2.06487 14.4136 1.8035 15.0479 1.78261C15.6823 1.76171 16.3008 1.98286 16.7781 2.4012L16.8981 2.5137L17.4872 3.10287C17.9358 3.55155 18.1971 4.15402 18.2179 4.78815C18.2388 5.42228 18.0178 6.04063 17.5997 6.51787L17.4872 6.63787L8.14391 15.982C8.0118 16.1141 7.85177 16.2149 7.67557 16.277L7.54057 16.3162L3.82891 17.1729C3.69886 17.2031 3.56344 17.2017 3.43407 17.1686C3.30469 17.1356 3.18514 17.072 3.08549 16.9831C2.98584 16.8943 2.909 16.7828 2.86145 16.658C2.8139 16.5332 2.79702 16.3989 2.81224 16.2662L2.82891 16.172L3.68474 12.4595C3.72702 12.2774 3.8096 12.1072 3.92641 11.9612L4.01891 11.857L13.3622 2.5137ZM12.7731 5.45953L5.28141 12.9512L4.75141 15.2495L7.04974 14.7187L14.5414 7.22703L12.7731 5.45953ZM15.7197 3.69203C15.5762 3.54855 15.3853 3.46236 15.1828 3.44963C14.9803 3.43689 14.7801 3.49849 14.6197 3.62287L14.5414 3.69203L13.9514 4.2812L15.7197 6.0487L16.3089 5.45953C16.4524 5.31604 16.5386 5.12512 16.5513 4.9226C16.564 4.72008 16.5024 4.51987 16.3781 4.35953L16.3089 4.2812L15.7197 3.69203Z" fill="#444444"/>
</svg>
