<svg width="16" height="16" viewBox="0 0 16 16" fill="none" xmlns="http://www.w3.org/2000/svg">
<path d="M2 14L5.34393 10.9126M5.34754 10.9093L3.33974 9.05595C2.65073 8.42061 3.34407 7.05859 4.28586 7.00392C5.13665 6.95392 7.10617 7.23859 7.76123 6.63392L9.55958 4.9739C10.0052 4.5619 9.72208 3.64056 9.6932 3.13255C9.65131 2.45521 10.8184 1.61853 11.4374 2.18987L14.7936 5.28857C15.4147 5.86058 14.5047 6.93459 13.7731 6.89859C13.2227 6.87192 12.2239 6.61059 11.7776 7.02192L9.9792 8.68194C9.32486 9.28662 9.63253 11.104 9.57908 11.8893C9.51986 12.7593 8.04434 13.3993 7.35461 12.7627L5.34754 10.9093Z" stroke="#999999" stroke-width="1.2" stroke-linecap="round" stroke-linejoin="round"/>
</svg>
