<svg width="20" height="20" viewBox="0 0 20 20" fill="none" xmlns="http://www.w3.org/2000/svg">
<path d="M2.5 17.5L6.67991 13.6408M6.68442 13.6366L4.17467 11.3199C3.31341 10.5258 4.18009 8.82324 5.35732 8.75491C6.42081 8.6924 8.88271 9.04824 9.70154 8.2924L11.9495 6.21738C12.5065 5.70237 12.1526 4.55069 12.1165 3.91569C12.0641 3.06901 13.523 2.02317 14.2967 2.73734L18.492 6.61072C19.2684 7.32572 18.1309 8.66824 17.2163 8.62324C16.5284 8.5899 15.2799 8.26323 14.7219 8.77741L12.474 10.8524C11.6561 11.6083 12.0407 13.88 11.9739 14.8616C11.8998 15.9491 10.0554 16.7492 9.19327 15.9533L6.68442 13.6366Z" stroke="#FF2626" stroke-width="1.2" stroke-linecap="round" stroke-linejoin="round"/>
</svg>
