<svg xmlns="http://www.w3.org/2000/svg" width="56" height="56" viewBox="0 0 56 56" fill="none">
  <path d="M40 30H30V40C30 40.5304 29.7893 41.0391 29.4142 41.4142C29.0391 41.7893 28.5304 42 28 42C27.4696 42 26.9609 41.7893 26.5858 41.4142C26.2107 41.0391 26 40.5304 26 40V30H16C15.4696 30 14.9609 29.7893 14.5858 29.4142C14.2107 29.0391 14 28.5304 14 28C14 27.4696 14.2107 26.9609 14.5858 26.5858C14.9609 26.2107 15.4696 26 16 26H26V16C26 15.4696 26.2107 14.9609 26.5858 14.5858C26.9609 14.2107 27.4696 14 28 14C28.5304 14 29.0391 14.2107 29.4142 14.5858C29.7893 14.9609 30 15.4696 30 16V26H40C40.5304 26 41.0391 26.2107 41.4142 26.5858C41.7893 26.9609 42 27.4696 42 28C42 28.5304 41.7893 29.0391 41.4142 29.4142C41.0391 29.7893 40.5304 30 40 30Z" fill="#A8A8A8"/>
</svg>



