<svg xmlns="http://www.w3.org/2000/svg" width="12" height="12" viewBox="0 0 12 12" fill="none">
  <g clip-path="url(#clip0_844_9615)">
    <path d="M1.2 6C1.2 4.56979 1.812 3.2869 2.772 2.39072L3.69 3.32987C3.7323 3.37228 3.78592 3.40094 3.84411 3.41223C3.90231 3.42352 3.96246 3.41693 4.017 3.3933C4.07154 3.36967 4.11802 3.33005 4.15059 3.27944C4.18316 3.22883 4.20035 3.16948 4.2 3.10889V0.475585C4.2 0.303715 4.068 0.168673 3.9 0.168673H1.326C1.056 0.168673 0.924 0.500138 1.116 0.690424L1.92 1.51909C0.744 2.63625 0 4.22605 0 6C0 8.91566 1.992 11.3587 4.656 11.9848C5.034 12.0707 5.4 11.7822 5.4 11.3832C5.4 11.0947 5.202 10.8492 4.926 10.7817C2.796 10.2845 1.2 8.33253 1.2 6ZM12 6C12 3.08434 10.008 0.641318 7.344 0.0152174C6.966 -0.070718 6.6 0.217779 6.6 0.616765C6.6 0.905262 6.798 1.15079 7.074 1.21831C9.204 1.71551 10.8 3.66747 10.8 6C10.8 7.43021 10.188 8.7131 9.228 9.60928L8.31 8.67013C8.2677 8.62772 8.21408 8.59906 8.15589 8.58777C8.09769 8.57648 8.03754 8.58307 7.983 8.6067C7.92846 8.63033 7.88198 8.66995 7.84941 8.72056C7.81684 8.77118 7.79965 8.83052 7.8 8.89111V11.5244C7.8 11.6963 7.932 11.8313 8.1 11.8313H10.674C10.944 11.8313 11.076 11.4999 10.884 11.3096L10.08 10.4809C11.256 9.36376 12 7.77395 12 6Z" fill="#444444"/>
  </g>
  <defs>
    <clipPath id="clip0_844_9615">
      <rect width="12" height="12" fill="white"/>
    </clipPath>
  </defs>
</svg>
