<svg width="16" height="16" viewBox="0 0 16 16" fill="none" xmlns="http://www.w3.org/2000/svg">
<g clip-path="url(#clip0_2115_17193)">
<path d="M13.6534 2.34267C12.9111 1.59895 12.0292 1.00915 11.0583 0.607129C10.0875 0.205111 9.04681 -0.00121164 7.99603 5.35254e-06C3.57736 5.35254e-06 -0.00463867 3.58201 -0.00463867 8.00067C-0.00463867 10.21 0.891361 12.2107 2.33936 13.6587C3.08167 14.4024 3.96355 14.9922 4.93439 15.3942C5.90523 15.7962 6.94591 16.0026 7.99669 16.0013C12.4154 16.0013 15.9974 12.4193 15.9974 8.00067C15.9974 5.79134 15.1014 3.79067 13.6534 2.34267ZM12.6254 12.6273C12.0179 13.2358 11.2964 13.7183 10.5021 14.0473C9.70783 14.3763 8.85642 14.5453 7.99669 14.5447C4.38136 14.5447 1.45069 11.614 1.45069 7.99867C1.45002 7.13894 1.61903 6.28753 1.94805 5.49325C2.27706 4.69897 2.75961 3.97743 3.36803 3.37001C3.97537 2.76167 4.6968 2.27917 5.49096 1.95015C6.28513 1.62114 7.13641 1.45208 7.99603 1.45267C11.6107 1.45267 14.5414 4.38334 14.5414 7.99801C14.5419 8.85762 14.3729 9.70891 14.0439 10.5031C13.7149 11.2972 13.2324 12.0187 12.624 12.626L12.6254 12.6273Z" fill="#2DC469"/>
<path d="M8.70852 7.28134L8.70852 3.64681C8.70045 3.45946 8.62033 3.28246 8.48489 3.15277C8.34945 3.02308 8.16914 2.95071 7.98162 2.95077C7.7941 2.95083 7.61384 3.02331 7.47848 3.1531C7.34312 3.28288 7.26312 3.45993 7.25518 3.64728V3.64634L7.25518 7.28087L3.62065 7.28087C3.4333 7.28893 3.2563 7.36905 3.12661 7.50449C2.99691 7.63994 2.92454 7.82024 2.9246 8.00776C2.92466 8.19529 2.99715 8.37554 3.12693 8.5109C3.25672 8.64626 3.43376 8.72626 3.62112 8.73421L3.62018 8.73421L7.2547 8.73421L7.2547 12.3687C7.25048 12.4668 7.26614 12.5647 7.30074 12.6565C7.33534 12.7483 7.38817 12.8322 7.45603 12.9031C7.5239 12.9739 7.60541 13.0303 7.69565 13.0689C7.78589 13.1074 7.883 13.1273 7.98113 13.1274C8.07926 13.1274 8.17638 13.1076 8.26664 13.0691C8.35691 13.0306 8.43845 12.9742 8.50637 12.9034C8.57428 12.8326 8.62716 12.7487 8.66182 12.6569C8.69648 12.5651 8.7122 12.4672 8.70804 12.3692L8.70804 12.3683L8.70804 8.73374L12.3426 8.73374C12.4406 8.73796 12.5385 8.7223 12.6303 8.6877C12.7221 8.6531 12.806 8.60027 12.8769 8.53241C12.9478 8.46454 13.0042 8.38303 13.0427 8.29279C13.0813 8.20255 13.1012 8.10544 13.1012 8.00731C13.1012 7.90918 13.0814 7.81206 13.0429 7.7218C13.0044 7.63153 12.9481 7.54999 12.8772 7.48207C12.8064 7.41416 12.7226 7.36128 12.6308 7.32662C12.539 7.29196 12.4411 7.27624 12.343 7.2804L12.3421 7.2804L8.70852 7.28134Z" fill="#2DC469"/>
</g>
<defs>
<clipPath id="clip0_2115_17193">
<rect width="16" height="16" fill="white"/>
</clipPath>
</defs>
</svg>
