<svg width="16" height="16" viewBox="0 0 16 16" fill="none" xmlns="http://www.w3.org/2000/svg">
<g clip-path="url(#clip0_1507_7439)">
<path d="M16 1.75C16 0.784 15.216 0 14.25 0H1.75C0.784 0 0 0.784 0 1.75V11.25C0 11.7141 0.184374 12.1592 0.512563 12.4874C0.840752 12.8156 1.28587 13 1.75 13H7.94L10.513 15.573C10.7169 15.7762 10.9765 15.9144 11.2589 15.9703C11.5413 16.0262 11.8339 15.9973 12.0999 15.8871C12.3659 15.777 12.5933 15.5905 12.7535 15.3513C12.9136 15.1121 12.9994 14.8309 13 14.543V13H14.25C14.7141 13 15.1592 12.8156 15.4874 12.4874C15.8156 12.1592 16 11.7141 16 11.25V1.75ZM14.25 1.5C14.3163 1.5 14.3799 1.52634 14.4268 1.57322C14.4737 1.62011 14.5 1.6837 14.5 1.75V11.25C14.5 11.388 14.388 11.5 14.25 11.5H12.25C12.0511 11.5 11.8603 11.579 11.7197 11.7197C11.579 11.8603 11.5 12.0511 11.5 12.25V14.44L8.78 11.72C8.63948 11.5793 8.44885 11.5002 8.25 11.5H1.75C1.6837 11.5 1.62011 11.4737 1.57322 11.4268C1.52634 11.3799 1.5 11.3163 1.5 11.25V1.75C1.5 1.6837 1.52634 1.62011 1.57322 1.57322C1.62011 1.52634 1.6837 1.5 1.75 1.5H14.25ZM7.25 3.75V6.25C7.25 6.44891 7.32902 6.63968 7.46967 6.78033C7.61032 6.92098 7.80109 7 8 7C8.19891 7 8.38968 6.92098 8.53033 6.78033C8.67098 6.63968 8.75 6.44891 8.75 6.25V3.75C8.75 3.55109 8.67098 3.36032 8.53033 3.21967C8.38968 3.07902 8.19891 3 8 3C7.80109 3 7.61032 3.07902 7.46967 3.21967C7.32902 3.36032 7.25 3.55109 7.25 3.75ZM7 9C7 9.26522 7.10536 9.51957 7.29289 9.70711C7.48043 9.89464 7.73478 10 8 10C8.26522 10 8.51957 9.89464 8.70711 9.70711C8.89464 9.51957 9 9.26522 9 9C9 8.73478 8.89464 8.48043 8.70711 8.29289C8.51957 8.10536 8.26522 8 8 8C7.73478 8 7.48043 8.10536 7.29289 8.29289C7.10536 8.48043 7 8.73478 7 9Z" fill="#FF2626"/>
</g>
<defs>
<clipPath id="clip0_1507_7439">
<rect width="16" height="16" fill="white" transform="matrix(-1 0 0 1 16 0)"/>
</clipPath>
</defs>
</svg>
