<svg width="16" height="16" viewBox="0 0 16 16" fill="none" xmlns="http://www.w3.org/2000/svg">
<path d="M13.3338 4.95236C12.2847 3.11312 10.2694 1.90474 8.00047 1.90474C6.79494 1.90474 5.61649 2.26222 4.61413 2.93197C3.61178 3.60172 2.83053 4.55367 2.3692 5.66743C1.90787 6.78119 1.78716 8.00674 2.02235 9.1891C2.25753 10.3715 2.83805 11.4575 3.69048 12.31C4.54292 13.1624 5.62898 13.7429 6.81134 13.9781C7.9937 14.2133 9.21925 14.0926 10.333 13.6312C11.4468 13.1699 12.3987 12.3887 13.0685 11.3863C13.7382 10.384 14.0957 9.2055 14.0957 7.99997" stroke="#848484" stroke-width="1.5" stroke-linecap="round" stroke-linejoin="round"/>
<path d="M10.2864 4.95215H13.334V1.90453" stroke="#848484" stroke-width="1.5" stroke-linecap="round" stroke-linejoin="round"/>
</svg>
