<svg width="16" height="16" viewBox="0 0 16 16" fill="none" xmlns="http://www.w3.org/2000/svg">
<path d="M7.7998 14.7998C8.71922 14.8009 9.6298 14.6204 10.4792 14.2685C11.3287 13.9167 12.1002 13.4004 12.7495 12.7495C13.4004 12.1002 13.9167 11.3287 14.2685 10.4792C14.6204 9.6298 14.8009 8.71922 14.7998 7.7998C14.8009 6.88039 14.6204 5.96981 14.2685 5.12038C13.9167 4.27095 13.4004 3.49942 12.7495 2.85011C12.1002 2.19917 11.3287 1.68294 10.4792 1.33108C9.6298 0.979224 8.71922 0.798676 7.7998 0.79981C6.88039 0.798676 5.96981 0.979224 5.12038 1.33108C4.27095 1.68294 3.49942 2.19917 2.85011 2.85011C2.19917 3.49942 1.68294 4.27095 1.33108 5.12038C0.979224 5.96981 0.798676 6.88039 0.79981 7.7998C0.798676 8.71922 0.979224 9.6298 1.33108 10.4792C1.68294 11.3287 2.19917 12.1002 2.85011 12.7495C3.49942 13.4004 4.27095 13.9167 5.12038 14.2685C5.96981 14.6204 6.88039 14.8009 7.7998 14.7998Z" stroke="#2DC469" stroke-width="1.6" stroke-linejoin="round"/>
<path d="M4.7998 7.7998L6.7998 9.7998L10.7998 5.7998" stroke="#2DC469" stroke-width="1.6" stroke-linecap="round" stroke-linejoin="round"/>
</svg>
