<svg width="20" height="20" viewBox="0 0 20 20" fill="none" xmlns="http://www.w3.org/2000/svg">
<g clip-path="url(#clip0_3828_17566)">
<path d="M17.0666 2.92834C16.1388 1.99868 15.0364 1.26143 13.8229 0.758911C12.6093 0.256388 11.3085 -0.00151455 9.99497 6.69067e-06C4.47164 6.69067e-06 -0.00585938 4.47751 -0.00585938 10.0008C-0.00585938 12.7625 1.11414 15.2633 2.92414 17.0733C3.85203 18.003 4.95438 18.7402 6.16793 19.2428C7.38148 19.7453 8.68233 20.0032 9.99581 20.0017C15.5191 20.0017 19.9966 15.5242 19.9966 10.0008C19.9966 7.23917 18.8766 4.73834 17.0666 2.92834ZM15.7816 15.7842C15.0224 16.5447 14.1204 17.1479 13.1276 17.5591C12.1347 17.9704 11.0705 18.1817 9.99581 18.1808C5.47664 18.1808 1.81331 14.5175 1.81331 9.99834C1.81246 8.92368 2.02373 7.85942 2.435 6.86656C2.84627 5.87371 3.44945 4.97179 4.20997 4.21251C4.96916 3.45209 5.87094 2.84896 6.86364 2.43769C7.85635 2.02643 8.92045 1.8151 9.99497 1.81584C14.5133 1.81584 18.1766 5.47917 18.1766 9.99751C18.1774 11.072 17.9661 12.1361 17.5548 13.1288C17.1435 14.1215 16.5404 15.0233 15.78 15.7825L15.7816 15.7842Z" fill="#D9D9D9"/>
<path d="M11.2808 9.99845L14.4933 6.78595C14.6518 6.61322 14.7374 6.38596 14.7323 6.15161C14.7272 5.91726 14.6318 5.69393 14.466 5.52823C14.3002 5.36254 14.0768 5.26728 13.8425 5.26235C13.6081 5.25743 13.3809 5.3432 13.2083 5.50178L13.2091 5.50095L9.99663 8.71345L6.78413 5.50095C6.6114 5.34248 6.38415 5.25685 6.1498 5.26193C5.91545 5.26701 5.69211 5.36241 5.52642 5.52822C5.36072 5.69402 5.26547 5.91741 5.26054 6.15177C5.25561 6.38612 5.34139 6.61332 5.49996 6.78595L5.49913 6.78511L8.71163 9.99761L5.49913 13.2101C5.40874 13.293 5.33607 13.3934 5.28549 13.5051C5.23491 13.6169 5.20746 13.7377 5.2048 13.8603C5.20214 13.983 5.22433 14.1049 5.27002 14.2187C5.31571 14.3325 5.38396 14.436 5.47067 14.5227C5.55738 14.6095 5.66074 14.6778 5.77455 14.7236C5.88835 14.7693 6.01024 14.7916 6.13287 14.789C6.25551 14.7864 6.37635 14.7591 6.48813 14.7086C6.59991 14.6581 6.70032 14.5854 6.7833 14.4951L6.78413 14.4943L9.99663 11.2818L13.2091 14.4943C13.2921 14.5847 13.3924 14.6573 13.5042 14.7079C13.6159 14.7585 13.7367 14.7859 13.8594 14.7886C13.982 14.7913 14.1039 14.7691 14.2177 14.7234C14.3316 14.6777 14.435 14.6094 14.5217 14.5227C14.6085 14.436 14.6768 14.3327 14.7226 14.2189C14.7684 14.1051 14.7906 13.9832 14.788 13.8605C14.7855 13.7379 14.7581 13.6171 14.7076 13.5053C14.6571 13.3935 14.5845 13.2931 14.4941 13.2101L14.4933 13.2093L11.2808 9.99845Z" fill="#D9D9D9"/>
</g>
<defs>
<clipPath id="clip0_3828_17566">
<rect width="20" height="20" fill="white"/>
</clipPath>
</defs>
</svg>
