<svg width="16" height="16" viewBox="0 0 16 16" fill="none" xmlns="http://www.w3.org/2000/svg">
<g clip-path="url(#clip0_1302_6431)">
<path d="M13.6534 2.34267C12.9111 1.59895 12.0292 1.00915 11.0583 0.607129C10.0875 0.205111 9.04681 -0.00121164 7.99603 5.35254e-06C3.57736 5.35254e-06 -0.00463867 3.58201 -0.00463867 8.00067C-0.00463867 10.21 0.891361 12.2107 2.33936 13.6587C3.08167 14.4024 3.96355 14.9922 4.93439 15.3942C5.90523 15.7962 6.94591 16.0026 7.99669 16.0013C12.4154 16.0013 15.9974 12.4193 15.9974 8.00067C15.9974 5.79134 15.1014 3.79067 13.6534 2.34267ZM12.6254 12.6273C12.0179 13.2358 11.2964 13.7183 10.5021 14.0473C9.70783 14.3763 8.85642 14.5453 7.99669 14.5447C4.38136 14.5447 1.45069 11.614 1.45069 7.99867C1.45002 7.13894 1.61903 6.28753 1.94805 5.49325C2.27706 4.69897 2.75961 3.97743 3.36803 3.37001C3.97537 2.76167 4.6968 2.27917 5.49096 1.95015C6.28513 1.62114 7.13641 1.45208 7.99603 1.45267C11.6107 1.45267 14.5414 4.38334 14.5414 7.99801C14.5419 8.85762 14.3729 9.70891 14.0439 10.5031C13.7149 11.2972 13.2324 12.0187 12.624 12.626L12.6254 12.6273Z" fill="#FF2626"/>
<path d="M9.02478 8.00032L11.5948 5.43032C11.7216 5.29214 11.7901 5.11033 11.786 4.92285C11.7819 4.73537 11.7056 4.55671 11.573 4.42415C11.4403 4.29159 11.2616 4.21539 11.0741 4.21145C10.8866 4.2075 10.7049 4.27612 10.5668 4.40299L10.5675 4.40232L7.99745 6.97232L5.42745 4.40232C5.28927 4.27555 5.10746 4.20704 4.91998 4.21111C4.7325 4.21517 4.55384 4.29149 4.42128 4.42414C4.28872 4.55678 4.21252 4.73549 4.20858 4.92298C4.20463 5.11046 4.27325 5.29222 4.40012 5.43032L4.39945 5.42965L6.96945 7.99965L4.39945 10.5697C4.32714 10.636 4.269 10.7163 4.22854 10.8057C4.18807 10.8951 4.16612 10.9917 4.16399 11.0898C4.16186 11.1879 4.17961 11.2855 4.21616 11.3765C4.25271 11.4676 4.30732 11.5503 4.37668 11.6197C4.44605 11.6891 4.52874 11.7438 4.61978 11.7804C4.71083 11.817 4.80834 11.8348 4.90645 11.8328C5.00455 11.8307 5.10123 11.8088 5.19065 11.7684C5.28008 11.728 5.3604 11.6699 5.42678 11.5977L5.42745 11.597L7.99745 9.02699L10.5675 11.597C10.6338 11.6693 10.7141 11.7274 10.8035 11.7679C10.8929 11.8084 10.9895 11.8303 11.0876 11.8324C11.1857 11.8346 11.2833 11.8168 11.3743 11.7803C11.4654 11.7437 11.5481 11.6891 11.6175 11.6198C11.6869 11.5504 11.7416 11.4677 11.7782 11.3767C11.8148 11.2856 11.8326 11.1881 11.8306 11.09C11.8285 10.9919 11.8066 10.8952 11.7662 10.8058C11.7258 10.7164 11.6677 10.636 11.5954 10.5697L11.5948 10.569L9.02478 8.00032Z" fill="#FF2626"/>
</g>
<defs>
<clipPath id="clip0_1302_6431">
<rect width="16" height="16" fill="white"/>
</clipPath>
</defs>
</svg>
