<svg width="20" height="20" viewBox="0 0 20 20" fill="none" xmlns="http://www.w3.org/2000/svg">
<path d="M9.75 18.5C10.8993 18.5014 12.0375 18.2757 13.0993 17.8359C14.1611 17.3961 15.1255 16.7508 15.9371 15.9371C16.7508 15.1255 17.3961 14.1611 17.8359 13.0993C18.2757 12.0375 18.5014 10.8993 18.5 9.75C18.5014 8.60073 18.2757 7.4625 17.8359 6.40072C17.3961 5.33893 16.7508 4.37452 15.9371 3.56288C15.1255 2.7492 14.1611 2.10391 13.0993 1.66409C12.0375 1.22427 10.8993 0.998589 9.75 1.00001C8.60073 0.998589 7.4625 1.22427 6.40072 1.66409C5.33893 2.10391 4.37452 2.7492 3.56288 3.56288C2.7492 4.37452 2.10391 5.33893 1.66409 6.40072C1.22427 7.4625 0.998589 8.60073 1.00001 9.75C0.998589 10.8993 1.22427 12.0375 1.66409 13.0993C2.10391 14.1611 2.7492 15.1255 3.56288 15.9371C4.37452 16.7508 5.33893 17.3961 6.40072 17.8359C7.4625 18.2757 8.60073 18.5014 9.75 18.5Z" stroke="#D9D9D9" stroke-width="2" stroke-linejoin="round"/>
<path d="M6 9.75L8.5 12.25L13.5 7.25" stroke="#D9D9D9" stroke-width="2" stroke-linecap="round" stroke-linejoin="round"/>
</svg>
