<svg width="16" height="16" viewBox="0 0 16 16" fill="none" xmlns="http://www.w3.org/2000/svg">
<path d="M13.5954 4.7013C13.659 4.64116 13.7339 4.59414 13.8157 4.56293C13.8975 4.53172 13.9847 4.51693 14.0722 4.5194C14.1598 4.52188 14.246 4.54157 14.3259 4.57736C14.4058 4.61315 14.4779 4.66432 14.538 4.72797C14.5982 4.79162 14.6452 4.86649 14.6764 4.94831C14.7076 5.03013 14.7224 5.11729 14.7199 5.20483C14.7175 5.29236 14.6978 5.37855 14.662 5.45848C14.6262 5.5384 14.575 5.61049 14.5114 5.67064L8.51138 11.3373C8.3876 11.4543 8.22372 11.5195 8.05338 11.5195C7.88304 11.5195 7.71916 11.4543 7.59538 11.3373L1.59472 5.67064C1.52968 5.61089 1.47715 5.53881 1.44021 5.45859C1.40326 5.37838 1.38261 5.29162 1.37948 5.20335C1.37634 5.11509 1.39078 5.02708 1.42194 4.94445C1.4531 4.86181 1.50037 4.78619 1.56101 4.72197C1.62165 4.65776 1.69444 4.60623 1.77516 4.57039C1.85588 4.53454 1.94291 4.5151 2.03121 4.51317C2.11951 4.51125 2.20731 4.52689 2.28951 4.55919C2.37171 4.59148 2.44668 4.63979 2.51005 4.7013L8.05338 9.93597L13.5954 4.7013Z" fill="#848484"/>
</svg>
