<svg width="64" height="64" viewBox="0 0 64 64" fill="none" xmlns="http://www.w3.org/2000/svg">
<path d="M22.5643 49.4589C22.3841 49.6592 22.2431 49.8949 22.1496 50.1525C22.0561 50.4101 22.0117 50.6845 22.0191 50.9601C22.0266 51.2356 22.0856 51.507 22.1929 51.7586C22.3001 52.0102 22.4535 52.2372 22.6443 52.4265C22.835 52.6159 23.0594 52.7639 23.3047 52.8621C23.5499 52.9604 23.8111 53.007 24.0735 52.9992C24.3359 52.9914 24.5942 52.9294 24.8337 52.8167C25.0733 52.704 25.2894 52.5429 25.4696 52.3426L42.4538 33.4536C42.8046 33.064 43 32.5481 43 32.0118C43 31.4755 42.8046 30.9596 42.4538 30.5699L25.4696 11.6789C25.2906 11.4742 25.0745 11.3088 24.8341 11.1925C24.5937 11.0762 24.3336 11.0112 24.0691 11.0013C23.8045 10.9914 23.5408 11.0369 23.2931 11.135C23.0454 11.2331 22.8188 11.3819 22.6263 11.5728C22.4338 11.7637 22.2794 11.9929 22.172 12.247C22.0645 12.5011 22.0062 12.7751 22.0005 13.0531C21.9947 13.331 22.0416 13.6075 22.1384 13.8662C22.2352 14.125 22.38 14.361 22.5643 14.5605L38.2537 32.0118L22.5643 49.4589Z" fill="#444444"/>
</svg>
