<svg width="64" height="64" viewBox="0 0 64 64" fill="none" xmlns="http://www.w3.org/2000/svg">
<path d="M41.4357 49.4589C41.6159 49.6592 41.7569 49.8949 41.8504 50.1525C41.9439 50.4101 41.9883 50.6845 41.9809 50.9601C41.9734 51.2356 41.9144 51.507 41.8071 51.7586C41.6999 52.0102 41.5465 52.2372 41.3557 52.4265C41.165 52.6159 40.9406 52.7639 40.6953 52.8621C40.4501 52.9604 40.1889 53.007 39.9265 52.9992C39.6641 52.9914 39.4058 52.9294 39.1663 52.8167C38.9267 52.704 38.7106 52.5429 38.5304 52.3426L21.5462 33.4536C21.1954 33.064 21 32.5481 21 32.0118C21 31.4755 21.1954 30.9596 21.5462 30.5699L38.5304 11.6789C38.7094 11.4742 38.9255 11.3088 39.1659 11.1925C39.4063 11.0762 39.6664 11.0112 39.9309 11.0013C40.1955 10.9914 40.4592 11.0369 40.7069 11.135C40.9546 11.2331 41.1812 11.3819 41.3737 11.5728C41.5662 11.7637 41.7206 11.9929 41.828 12.247C41.9355 12.5011 41.9938 12.7751 41.9995 13.0531C42.0053 13.331 41.9584 13.6075 41.8616 13.8662C41.7648 14.125 41.62 14.361 41.4357 14.5605L25.7463 32.0118L41.4357 49.4589Z" fill="#999999"/>
</svg>
