<svg width="14" height="14" viewBox="0 0 14 14" fill="none" xmlns="http://www.w3.org/2000/svg">
<path d="M2.91667 5.83203C2.275 5.83203 1.75 6.35703 1.75 6.9987C1.75 7.64036 2.275 8.16536 2.91667 8.16536C3.55833 8.16536 4.08333 7.64036 4.08333 6.9987C4.08333 6.35703 3.55833 5.83203 2.91667 5.83203ZM11.0833 5.83203C10.4417 5.83203 9.91667 6.35703 9.91667 6.9987C9.91667 7.64036 10.4417 8.16536 11.0833 8.16536C11.725 8.16536 12.25 7.64036 12.25 6.9987C12.25 6.35703 11.725 5.83203 11.0833 5.83203ZM7 5.83203C6.35833 5.83203 5.83333 6.35703 5.83333 6.9987C5.83333 7.64036 6.35833 8.16536 7 8.16536C7.64167 8.16536 8.16667 7.64036 8.16667 6.9987C8.16667 6.35703 7.64167 5.83203 7 5.83203Z" fill="#444444"/>
</svg>
