<svg width="27" height="27" viewBox="0 0 27 27" fill="none" xmlns="http://www.w3.org/2000/svg">
<path d="M18.1947 14.2873C19.5019 13.2589 20.456 11.8486 20.9244 10.2526C21.3927 8.65661 21.3519 6.95435 20.8078 5.38262C20.2636 3.81089 19.243 2.44785 17.8881 1.48313C16.5332 0.51842 14.9113 0 13.248 0C11.5848 0 9.96286 0.51842 8.60795 1.48313C7.25304 2.44785 6.2325 3.81089 5.68833 5.38262C5.14415 6.95435 5.10339 8.65661 5.57172 10.2526C6.04006 11.8486 6.99419 13.2589 8.30138 14.2873C6.06148 15.1847 4.10709 16.6731 2.64657 18.5939C1.18604 20.5146 0.274126 22.7957 0.00804245 25.194C-0.0112181 25.3691 0.00419784 25.5463 0.0534097 25.7154C0.102622 25.8845 0.184666 26.0423 0.294858 26.1798C0.517401 26.4573 0.841087 26.6351 1.19471 26.674C1.54833 26.7129 1.90292 26.6097 2.18048 26.3872C2.45803 26.1646 2.63581 25.8409 2.67471 25.4873C2.96749 22.8809 4.21029 20.4737 6.16567 18.7257C8.12104 16.9777 10.6519 16.0114 13.2747 16.0114C15.8975 16.0114 18.4284 16.9777 20.3837 18.7257C22.3391 20.4737 23.5819 22.8809 23.8747 25.4873C23.911 25.8149 24.0673 26.1175 24.3135 26.3367C24.5597 26.5558 24.8784 26.676 25.208 26.674H25.3547C25.7042 26.6338 26.0237 26.457 26.2435 26.1823C26.4632 25.9076 26.5655 25.5571 26.528 25.2073C26.2607 22.8023 25.3439 20.5153 23.8758 18.5916C22.4078 16.6679 20.4439 15.18 18.1947 14.2873ZM13.248 13.3407C12.1932 13.3407 11.1621 13.0279 10.285 12.4418C9.40794 11.8558 8.72435 11.0228 8.32068 10.0483C7.91702 9.07377 7.8114 8.00141 8.01719 6.96685C8.22297 5.93228 8.73093 4.98197 9.47681 4.23609C10.2227 3.49021 11.173 2.98226 12.2076 2.77647C13.2421 2.57068 14.3145 2.6763 15.289 3.07997C16.2636 3.48364 17.0965 4.16722 17.6825 5.04429C18.2686 5.92135 18.5814 6.95249 18.5814 8.00733C18.5814 9.42181 18.0195 10.7784 17.0193 11.7786C16.0191 12.7788 14.6625 13.3407 13.248 13.3407Z" fill="#FF5694"/>
</svg>
