<svg width="32" height="32" viewBox="0 0 32 32" fill="none" xmlns="http://www.w3.org/2000/svg">
<path d="M22.5965 4.80826C22.7168 4.68096 22.8108 4.53122 22.8732 4.36758C22.9356 4.20395 22.9652 4.02962 22.9603 3.85455C22.9553 3.67948 22.9159 3.5071 22.8444 3.34725C22.7728 3.1874 22.6704 3.04322 22.5431 2.92293C22.4158 2.80263 22.2661 2.70859 22.1025 2.64617C21.9388 2.58375 21.7645 2.55417 21.5894 2.55913C21.4144 2.56408 21.242 2.60347 21.0821 2.67504C20.9223 2.74661 20.7781 2.84896 20.6578 2.97626L9.32448 14.9763C9.09043 15.2238 8.96002 15.5516 8.96002 15.8923C8.96002 16.2329 9.09043 16.5607 9.32448 16.8083L20.6578 28.8096C20.7773 28.9397 20.9215 29.0447 21.0819 29.1186C21.2423 29.1925 21.4159 29.2338 21.5924 29.2401C21.7689 29.2463 21.9449 29.2175 22.1102 29.1551C22.2755 29.0928 22.4267 28.9983 22.5551 28.877C22.6836 28.7557 22.7866 28.6101 22.8583 28.4487C22.93 28.2873 22.9689 28.1132 22.9727 27.9366C22.9766 27.76 22.9453 27.5844 22.8807 27.42C22.8161 27.2556 22.7195 27.1057 22.5965 26.9789L12.1271 15.8923L22.5965 4.80826Z" fill="#FF5694"/>
</svg>
