<svg width="16" height="16" viewBox="0 0 16 16" fill="none" xmlns="http://www.w3.org/2000/svg">
<path d="M11.2982 2.40483C11.3584 2.34118 11.4054 2.26631 11.4366 2.18449C11.4678 2.10268 11.4826 2.01551 11.4801 1.92798C11.4777 1.84044 11.458 1.75425 11.4222 1.67433C11.3864 1.5944 11.3352 1.52231 11.2716 1.46216C11.2079 1.40202 11.1331 1.355 11.0512 1.32379C10.9694 1.29258 10.8823 1.27779 10.7947 1.28027C10.7072 1.28274 10.621 1.30243 10.5411 1.33822C10.4611 1.37401 10.3891 1.42518 10.3289 1.48883L4.66224 7.48883C4.54522 7.61261 4.48001 7.77649 4.48001 7.94683C4.48001 8.11717 4.54522 8.28105 4.66224 8.40483L10.3289 14.4055C10.3887 14.4705 10.4607 14.5231 10.5409 14.56C10.6212 14.597 10.7079 14.6176 10.7962 14.6207C10.8845 14.6239 10.9725 14.6094 11.0551 14.5783C11.1377 14.5471 11.2134 14.4998 11.2776 14.4392C11.3418 14.3786 11.3933 14.3058 11.4292 14.2251C11.465 14.1443 11.4844 14.0573 11.4864 13.969C11.4883 13.8807 11.4727 13.7929 11.4404 13.7107C11.4081 13.6285 11.3598 13.5535 11.2982 13.4902L6.06357 7.94683L11.2982 2.40483Z" fill="#FF5694"/>
</svg>
