<svg width="33" height="15" viewBox="0 0 33 15" fill="none" xmlns="http://www.w3.org/2000/svg">
<path d="M14.24 -7.15256e-06L9.26001 14.04H4.98001L7.3351e-06 -7.15256e-06H3.64001L7.12001 10.6L10.62 -7.15256e-06H14.24ZM23.8694 14.04L21.0094 9.73999L18.4894 14.04H14.6094L19.1094 6.89999L14.5094 -7.15256e-06H18.4894L21.3094 4.23999L23.7894 -7.15256e-06H27.6694L23.2094 7.07999L27.8494 14.04H23.8694ZM30.7663 14.2C30.1663 14.2 29.6729 14.0267 29.2863 13.68C28.9129 13.32 28.7263 12.88 28.7263 12.36C28.7263 11.8267 28.9129 11.38 29.2863 11.02C29.6729 10.66 30.1663 10.48 30.7663 10.48C31.3529 10.48 31.8329 10.66 32.2063 11.02C32.5929 11.38 32.7863 11.8267 32.7863 12.36C32.7863 12.88 32.5929 13.32 32.2063 13.68C31.8329 14.0267 31.3529 14.2 30.7663 14.2Z" fill="#FF5694"/>
</svg>
