<svg width="24" height="24" viewBox="0 0 24 24" fill="none" xmlns="http://www.w3.org/2000/svg">
<path d="M14.4375 18.3545H9.56249V18.5002C9.56255 19.1018 9.81077 19.686 10.2641 20.1226C10.7188 20.5603 11.3424 20.8125 12 20.8125C12.6576 20.8125 13.2812 20.5603 13.7358 20.1226C14.1892 19.686 14.4374 19.1018 14.4375 18.5002V18.3545ZM12 3.1875C11.6409 3.1875 11.3032 3.32511 11.0596 3.55957C10.8171 3.79301 10.6875 4.10223 10.6875 4.4165C10.6875 4.78392 10.4726 5.11752 10.1382 5.26978C8.99711 5.78939 8.02893 6.59648 7.33446 7.59961C6.64457 8.59623 6.24962 9.75057 6.18749 10.9402V14.1665C6.18749 14.2056 6.18504 14.2449 6.18016 14.2837C6.08157 15.0679 5.80086 15.8171 5.36498 16.4795H18.635C18.1991 15.8171 17.9184 15.0679 17.8198 14.2837C17.8149 14.2449 17.8125 14.2056 17.8125 14.1665V10.9402C17.7504 9.75057 17.3554 8.59623 16.6655 7.59961C15.971 6.59648 15.0029 5.78939 13.8618 5.26978C13.5274 5.11752 13.3125 4.78392 13.3125 4.4165C13.3124 4.10223 13.1828 3.79301 12.9404 3.55957C12.6968 3.32511 12.3591 3.1875 12 3.1875ZM16.3125 18.5002C16.3124 19.6224 15.849 20.6909 15.0366 21.4731C14.2254 22.2543 13.1326 22.6875 12 22.6875C10.8674 22.6875 9.7746 22.2543 8.96337 21.4731C8.15102 20.6909 7.68755 19.6224 7.68749 18.5002V18.3545H2.99999C2.5715 18.3545 2.19773 18.0636 2.09178 17.6484C1.98593 17.2332 2.17487 16.799 2.55101 16.5938C3.03778 16.3283 3.4498 15.9583 3.75585 15.5164C4.05267 15.0876 4.24151 14.6015 4.31249 14.0962V10.9167C4.31249 10.9016 4.31322 10.8864 4.31395 10.8713C4.38959 9.31958 4.90232 7.81969 5.79344 6.53247C6.58244 5.3928 7.64081 4.45857 8.87474 3.80347C8.99956 3.19998 9.30704 2.64399 9.75878 2.20898C10.359 1.63108 11.1659 1.3125 12 1.3125C12.8341 1.3125 13.641 1.63108 14.2412 2.20898C14.6929 2.64396 14.9997 3.20003 15.1245 3.80347C16.3587 4.45858 17.4174 5.39263 18.2065 6.53247C19.0977 7.81969 19.6104 9.31958 19.686 10.8713C19.6868 10.8864 19.6875 10.9016 19.6875 10.9167V14.0962C19.7585 14.6015 19.9473 15.0876 20.2441 15.5164C20.5502 15.9583 20.9622 16.3283 21.449 16.5938C21.8251 16.799 22.014 17.2332 21.9082 17.6484C21.8022 18.0636 21.4285 18.3545 21 18.3545H16.3125V18.5002Z" fill="#FF5694"/>
</svg>
