<svg width="24" height="24" viewBox="0 0 24 24" fill="none" xmlns="http://www.w3.org/2000/svg">
<path d="M12 1C14.9174 1 17.7153 2.15893 19.7782 4.22183C21.8411 6.28473 23 9.08262 23 12C23 14.9174 21.8411 17.7153 19.7782 19.7782C17.7153 21.8411 14.9174 23 12 23C9.08262 23 6.28473 21.8411 4.22183 19.7782C2.15893 17.7153 1 14.9174 1 12C1 9.08262 2.15893 6.28473 4.22183 4.22183C6.28473 2.15893 9.08262 1 12 1ZM3.0625 12C3.0625 14.3704 4.00413 16.6437 5.68023 18.3198C7.35634 19.9959 9.62963 20.9375 12 20.9375C14.3704 20.9375 16.6437 19.9959 18.3198 18.3198C19.9959 16.6437 20.9375 14.3704 20.9375 12C20.9375 9.62963 19.9959 7.35634 18.3198 5.68023C16.6437 4.00413 14.3704 3.0625 12 3.0625C9.62963 3.0625 7.35634 4.00413 5.68023 5.68023C4.00413 7.35634 3.0625 9.62963 3.0625 12ZM13.0312 7.53125V10.9688H16.4688C16.7423 10.9688 17.0046 11.0774 17.198 11.2708C17.3913 11.4642 17.5 11.7265 17.5 12C17.5 12.2735 17.3913 12.5358 17.198 12.7292C17.0046 12.9226 16.7423 13.0312 16.4688 13.0312H13.0312V16.4688C13.0312 16.7423 12.9226 17.0046 12.7292 17.198C12.5358 17.3913 12.2735 17.5 12 17.5C11.7265 17.5 11.4642 17.3913 11.2708 17.198C11.0774 17.0046 10.9688 16.7423 10.9688 16.4688V13.0312H7.53125C7.25775 13.0312 6.99544 12.9226 6.80205 12.7292C6.60865 12.5358 6.5 12.2735 6.5 12C6.5 11.7265 6.60865 11.4642 6.80205 11.2708C6.99544 11.0774 7.25775 10.9688 7.53125 10.9688H10.9688V7.53125C10.9688 7.25775 11.0774 6.99544 11.2708 6.80205C11.4642 6.60865 11.7265 6.5 12 6.5C12.2735 6.5 12.5358 6.60865 12.7292 6.80205C12.9226 6.99544 13.0312 7.25775 13.0312 7.53125Z" fill="#FF5694"/>
</svg>
