<svg width="16" height="16" viewBox="0 0 16 16" fill="none" xmlns="http://www.w3.org/2000/svg">
<g clip-path="url(#clip0_267_133)">
<path d="M8 15C8.91942 15.0011 9.83 14.8206 10.6794 14.4687C11.5289 14.1169 12.3004 13.6006 12.9497 12.9497C13.6006 12.3004 14.1169 11.5289 14.4687 10.6794C14.8206 9.83 15.0011 8.91942 15 8C15.0011 7.08058 14.8206 6.17 14.4687 5.32057C14.1169 4.47115 13.6006 3.69961 12.9497 3.0503C12.3004 2.39936 11.5289 1.88313 10.6794 1.53128C9.83 1.17942 8.91942 0.998872 8 1.00001C7.08058 0.998872 6.17 1.17942 5.32057 1.53128C4.47115 1.88313 3.69961 2.39936 3.0503 3.0503C2.39936 3.69961 1.88313 4.47115 1.53128 5.32057C1.17942 6.17 0.998872 7.08058 1.00001 8C0.998872 8.91942 1.17942 9.83 1.53128 10.6794C1.88313 11.5289 2.39936 12.3004 3.0503 12.9497C3.69961 13.6006 4.47115 14.1169 5.32057 14.4687C6.17 14.8206 7.08058 15.0011 8 15Z" stroke="#2DC469" stroke-width="1.6" stroke-linejoin="round"/>
<path d="M5 8L7 10L11 6" stroke="#2DC469" stroke-width="1.6" stroke-linecap="round" stroke-linejoin="round"/>
</g>
<defs>
<clipPath id="clip0_267_133">
<rect width="16" height="16" fill="white"/>
</clipPath>
</defs>
</svg>
