<svg width="24" height="24" viewBox="0 0 24 24" fill="none" xmlns="http://www.w3.org/2000/svg">
<circle cx="12" cy="12" r="12" fill="#FF5694"/>
<g clip-path="url(#clip0_3712_26941)">
<path d="M16.4833 8.79836L13.2816 12L16.4833 15.2016C16.6531 15.3715 16.7485 15.6018 16.7485 15.842C16.7485 16.0821 16.6531 16.3125 16.4833 16.4823C16.3134 16.6521 16.0831 16.7475 15.8429 16.7475C15.6028 16.7475 15.3724 16.6521 15.2026 16.4823L12.001 13.2807L8.79933 16.4823C8.6295 16.6521 8.39917 16.7475 8.159 16.7475C7.91883 16.7475 7.6885 16.6521 7.51867 16.4823C7.34885 16.3125 7.25344 16.0821 7.25344 15.842C7.25344 15.6018 7.34885 15.3715 7.51867 15.2016L10.7203 12L7.51867 8.79836C7.34885 8.62853 7.25344 8.3982 7.25344 8.15803C7.25344 7.91786 7.34885 7.68753 7.51867 7.5177C7.6885 7.34788 7.91883 7.25247 8.159 7.25247C8.39917 7.25247 8.6295 7.34788 8.79933 7.5177L12.001 10.7193L15.2026 7.5177C15.3724 7.34788 15.6028 7.25247 15.8429 7.25247C16.0831 7.25247 16.3134 7.34788 16.4833 7.5177C16.6531 7.68753 16.7485 7.91786 16.7485 8.15803C16.7485 8.3982 16.6531 8.62853 16.4833 8.79836Z" fill="white"/>
</g>
<defs>
<clipPath id="clip0_3712_26941">
<rect width="12" height="12" fill="white" transform="translate(6 6)"/>
</clipPath>
</defs>
</svg>
