<svg width="16" height="16" viewBox="0 0 16 16" fill="none" xmlns="http://www.w3.org/2000/svg">
<path fill-rule="evenodd" clip-rule="evenodd" d="M4.92285 8.00002C4.92285 7.18397 5.24703 6.40134 5.82406 5.82431C6.4011 5.24727 7.18372 4.9231 7.99977 4.9231C8.81583 4.9231 9.59845 5.24727 10.1755 5.82431C10.7525 6.40134 11.0767 7.18397 11.0767 8.00002C11.0767 8.81607 10.7525 9.5987 10.1755 10.1757C9.59845 10.7528 8.81583 11.0769 7.99977 11.0769C7.18372 11.0769 6.4011 10.7528 5.82406 10.1757C5.24703 9.5987 4.92285 8.81607 4.92285 8.00002ZM7.99977 6.15386C7.51014 6.15386 7.04057 6.34837 6.69435 6.69459C6.34813 7.04081 6.15362 7.51039 6.15362 8.00002C6.15362 8.48965 6.34813 8.95923 6.69435 9.30545C7.04057 9.65167 7.51014 9.84617 7.99977 9.84617C8.4894 9.84617 8.95898 9.65167 9.3052 9.30545C9.65142 8.95923 9.84593 8.48965 9.84593 8.00002C9.84593 7.51039 9.65142 7.04081 9.3052 6.69459C8.95898 6.34837 8.4894 6.15386 7.99977 6.15386Z" fill="#444444"/>
<path fill-rule="evenodd" clip-rule="evenodd" d="M1.70092 6.88891C1.35713 7.3845 1.23077 7.7726 1.23077 7.99989C1.23077 8.22717 1.35713 8.61527 1.70092 9.11086C2.03405 9.58922 2.528 10.1086 3.15323 10.5886C4.40615 11.5502 6.12349 12.3076 8 12.3076C9.87651 12.3076 11.5938 11.5502 12.8468 10.5886C13.472 10.1086 13.9659 9.58922 14.2991 9.11086C14.6429 8.61527 14.7692 8.22717 14.7692 7.99989C14.7692 7.7726 14.6429 7.3845 14.2991 6.88891C13.9659 6.41055 13.472 5.89117 12.8468 5.41117C11.5938 4.44953 9.87651 3.69219 8 3.69219C6.12349 3.69219 4.40615 4.44953 3.15323 5.41117C2.528 5.89117 2.03405 6.41055 1.70092 6.88891ZM2.40328 4.43476C3.82359 3.34512 5.79774 2.46143 8 2.46143C10.2023 2.46143 12.1764 3.34512 13.5959 4.43476C14.3073 4.9804 14.8948 5.58922 15.3099 6.18737C15.7136 6.76912 16 7.40666 16 7.99989C16 8.59312 15.7128 9.23066 15.3099 9.8124C14.8948 10.4106 14.3073 11.0186 13.5967 11.565C12.1772 12.6547 10.2023 13.5383 8 13.5383C5.79774 13.5383 3.82359 12.6547 2.4041 11.565C1.69272 11.0194 1.10523 10.4106 0.690051 9.8124C0.28718 9.23066 0 8.59312 0 7.99989C0 7.40666 0.28718 6.76912 0.690051 6.18737C1.10523 5.58922 1.69272 4.98122 2.40328 4.43476Z" fill="#444444"/>
<circle cx="8" cy="8" r="2" fill="#444444"/>
</svg>
