<svg width="16" height="16" viewBox="0 0 16 16" fill="none" xmlns="http://www.w3.org/2000/svg">
<g clip-path="url(#clip0_1727_7563)">
<g clip-path="url(#clip1_1727_7563)">
<path fill-rule="evenodd" clip-rule="evenodd" d="M14.9984 1.85036C15.1072 1.73337 15.1664 1.57864 15.1636 1.41876C15.1607 1.25887 15.0961 1.10633 14.9834 0.993257C14.8706 0.880186 14.7184 0.815417 14.5589 0.812596C14.3994 0.809775 14.2451 0.869122 14.1284 0.978134L0.995735 14.1438C0.935253 14.2003 0.886742 14.2685 0.853097 14.3442C0.819451 14.4199 0.801359 14.5016 0.7999 14.5845C0.798442 14.6673 0.813647 14.7496 0.844608 14.8265C0.875569 14.9033 0.921652 14.9731 0.980108 15.0317C1.03856 15.0903 1.10819 15.1365 1.18485 15.1676C1.2615 15.1986 1.3436 15.2139 1.42626 15.2124C1.50891 15.2109 1.59043 15.1928 1.66594 15.1591C1.74145 15.1253 1.80942 15.0767 1.86577 15.0161L4.20257 12.6734C5.32459 13.2033 6.61569 13.5514 7.99709 13.5514C10.2001 13.5514 12.1749 12.6652 13.5949 11.5724C14.3065 11.0252 14.8942 10.4147 15.3095 9.8148C15.7133 9.23139 15.9998 8.59203 15.9998 7.99711C15.9998 7.40218 15.7125 6.76282 15.3095 6.17941C14.8942 5.57955 14.3065 4.96981 13.5957 4.42179C13.3801 4.25557 13.1525 4.09567 12.9128 3.94207L14.9984 1.85036ZM12.019 4.83816L10.5653 6.29544C10.9572 6.88882 11.1325 7.59978 11.0614 8.30787C10.9904 9.01596 10.6773 9.67766 10.1754 10.1809C9.67342 10.6841 9.01339 10.9979 8.30707 11.0692C7.60076 11.1404 6.89159 10.9647 6.29969 10.5718L5.13663 11.737C6.04403 12.113 7.01526 12.31 7.99709 12.3171C9.87424 12.3171 11.5922 11.5576 12.8455 10.5932C13.4709 10.1118 13.9651 9.59098 14.2983 9.11125C14.6422 8.61425 14.7686 8.22504 14.7686 7.99711C14.7686 7.76917 14.6422 7.37996 14.2983 6.88296C13.9651 6.40323 13.4709 5.88236 12.8455 5.40099C12.5883 5.20296 12.3134 5.01535 12.019 4.83816ZM7.2001 9.66833C7.54472 9.83333 7.93188 9.88717 8.30829 9.82242C8.68469 9.75768 9.03182 9.57754 9.30187 9.30681C9.57191 9.03609 9.7516 8.68809 9.81618 8.31074C9.88076 7.93339 9.82706 7.54524 9.66247 7.19976L7.2001 9.66833Z" fill="#444444"/>
<path d="M7 9.5L9.5 6.5L10.5 7L10 9L8 10.5L7 9.5Z" fill="#444444"/>
<path d="M7.99719 2.41235C8.84366 2.41235 9.65732 2.54696 10.4177 2.77496C10.451 2.78514 10.4811 2.80408 10.505 2.82989C10.529 2.85569 10.546 2.88748 10.5542 2.92208C10.5625 2.95668 10.5619 2.99291 10.5523 3.02716C10.5427 3.06142 10.5246 3.09252 10.4997 3.11737L9.82383 3.81144C9.79893 3.83725 9.76794 3.85601 9.73387 3.86589C9.69981 3.87576 9.66383 3.87643 9.62944 3.86781C9.09407 3.74121 8.5466 3.67631 7.99719 3.67431C6.12134 3.67431 4.40461 4.45084 3.15212 5.43685C2.52711 5.92901 2.03334 6.46156 1.70033 6.95204C1.35665 7.46019 1.23034 7.85812 1.23034 8.09117C1.23034 8.32421 1.35665 8.72214 1.70033 9.23029C1.99069 9.65936 2.40408 10.1196 2.92082 10.557C3.01597 10.637 3.02499 10.7842 2.93722 10.8742L2.35651 11.4707C2.32094 11.5077 2.2731 11.5296 2.2225 11.5321C2.1719 11.5346 2.12223 11.5175 2.08337 11.4842C1.55516 11.0376 1.0866 10.5217 0.689809 9.94961C0.287079 9.35312 0 8.69943 0 8.09117C0 7.4829 0.287079 6.82921 0.689809 6.23272C1.10484 5.61941 1.69212 4.996 2.40244 4.43569C3.82225 3.31844 5.79571 2.41235 7.99719 2.41235Z" fill="#444444"/>
<path d="M8.02807 4.97241C8.12514 4.97241 8.22086 4.97677 8.31521 4.9855C8.47636 5.00104 8.53445 5.19329 8.42073 5.30782L7.42843 6.29931C7.16431 6.39088 6.9244 6.54115 6.72673 6.73882C6.52907 6.93648 6.3788 7.17639 6.28723 7.44051L5.29574 8.43282C5.18122 8.54735 4.98897 8.48845 4.97343 8.32729C4.93345 7.90206 4.98271 7.47317 5.11804 7.06808C5.25338 6.66299 5.47181 6.29061 5.75936 5.97481C6.0469 5.659 6.39722 5.40671 6.78789 5.2341C7.17856 5.06149 7.60096 4.97236 8.02807 4.97241Z" fill="#444444"/>
</g>
</g>
<defs>
<clipPath id="clip0_1727_7563">
<rect width="16" height="16" fill="white"/>
</clipPath>
<clipPath id="clip1_1727_7563">
<rect width="16" height="16" fill="white"/>
</clipPath>
</defs>
</svg>
