<svg width="16" height="16" viewBox="0 0 16 16" fill="none" xmlns="http://www.w3.org/2000/svg">
<g clip-path="url(#clip0_3074_8467)">
<path d="M7.19995 7.18418C7.19995 6.972 7.28424 6.76852 7.43427 6.61849C7.5843 6.46846 7.78778 6.38417 7.99995 6.38417C8.21213 6.38417 8.41561 6.46846 8.56564 6.61849C8.71567 6.76852 8.79996 6.972 8.79996 7.18418V11.9842C8.79996 12.1964 8.71567 12.3998 8.56564 12.5499C8.41561 12.6999 8.21213 12.7842 7.99995 12.7842C7.78778 12.7842 7.5843 12.6999 7.43427 12.5499C7.28424 12.3998 7.19995 12.1964 7.19995 11.9842V7.18418ZM7.99995 3.24097C7.78778 3.24097 7.5843 3.32525 7.43427 3.47528C7.28424 3.62531 7.19995 3.8288 7.19995 4.04097C7.19995 4.25314 7.28424 4.45663 7.43427 4.60666C7.5843 4.75669 7.78778 4.84097 7.99995 4.84097C8.21213 4.84097 8.41561 4.75669 8.56564 4.60666C8.71567 4.45663 8.79996 4.25314 8.79996 4.04097C8.79996 3.8288 8.71567 3.62531 8.56564 3.47528C8.41561 3.32525 8.21213 3.24097 7.99995 3.24097Z" fill="#FF2626"/>
<path fill-rule="evenodd" clip-rule="evenodd" d="M8.00002 0C3.58161 0 0 3.58161 0 8.00002C0 12.4184 3.58161 16 8.00002 16C12.4184 16 16 12.4184 16 8.00002C16 3.58161 12.4184 0 8.00002 0ZM1.6 8.00002C1.6 9.69741 2.27429 11.3253 3.47453 12.5255C4.67476 13.7258 6.30263 14.4 8.00002 14.4C9.69741 14.4 11.3253 13.7258 12.5255 12.5255C13.7258 11.3253 14.4 9.69741 14.4 8.00002C14.4 6.30263 13.7258 4.67476 12.5255 3.47453C11.3253 2.27429 9.69741 1.6 8.00002 1.6C6.30263 1.6 4.67476 2.27429 3.47453 3.47453C2.27429 4.67476 1.6 6.30263 1.6 8.00002Z" fill="#FF2626"/>
</g>
<defs>
<clipPath id="clip0_3074_8467">
<rect width="16" height="16" fill="white"/>
</clipPath>
</defs>
</svg>
