<svg width="28" height="28" viewBox="0 0 28 28" fill="none" xmlns="http://www.w3.org/2000/svg">
<path d="M5.83333 11.6666C4.55 11.6666 3.5 12.7166 3.5 14C3.5 15.2833 4.55 16.3333 5.83333 16.3333C7.11667 16.3333 8.16667 15.2833 8.16667 14C8.16667 12.7166 7.11667 11.6666 5.83333 11.6666ZM22.1667 11.6666C20.8833 11.6666 19.8333 12.7166 19.8333 14C19.8333 15.2833 20.8833 16.3333 22.1667 16.3333C23.45 16.3333 24.5 15.2833 24.5 14C24.5 12.7166 23.45 11.6666 22.1667 11.6666ZM14 11.6666C12.7167 11.6666 11.6667 12.7166 11.6667 14C11.6667 15.2833 12.7167 16.3333 14 16.3333C15.2833 16.3333 16.3333 15.2833 16.3333 14C16.3333 12.7166 15.2833 11.6666 14 11.6666Z" fill="#848484"/>
</svg>
