<svg width="40" height="40" viewBox="0 0 40 40" fill="none" xmlns="http://www.w3.org/2000/svg">
<path d="M10.8335 12.5002C10.8335 12.9422 11.0091 13.3661 11.3217 13.6787C11.6342 13.9912 12.0581 14.1668 12.5002 14.1668C12.9422 14.1668 13.3661 13.9912 13.6787 13.6787C13.9912 13.3661 14.1668 12.9422 14.1668 12.5002C14.1668 12.0581 13.9912 11.6342 13.6787 11.3217C13.3661 11.0091 12.9422 10.8335 12.5002 10.8335C12.0581 10.8335 11.6342 11.0091 11.3217 11.3217C11.0091 11.6342 10.8335 12.0581 10.8335 12.5002Z" stroke="#FF5694" stroke-width="2.5" stroke-linecap="round" stroke-linejoin="round"/>
<path d="M5 10V18.62C5.00019 19.504 5.3515 20.3517 5.97667 20.9767L18.8267 33.8267C19.5799 34.5798 20.6015 35.0029 21.6667 35.0029C22.7318 35.0029 23.7534 34.5798 24.5067 33.8267L33.8267 24.5067C34.5798 23.7534 35.0029 22.7318 35.0029 21.6667C35.0029 20.6015 34.5798 19.5799 33.8267 18.8267L20.9767 5.97667C20.3517 5.3515 19.504 5.00019 18.62 5H10C8.67392 5 7.40215 5.52678 6.46447 6.46447C5.52678 7.40215 5 8.67392 5 10Z" stroke="#FF5694" stroke-width="2.5" stroke-linecap="round" stroke-linejoin="round"/>
</svg>
