<svg width="24" height="24" viewBox="0 0 24 24" fill="none" xmlns="http://www.w3.org/2000/svg">
<path d="M16.0352 3.01493C16.5736 2.47632 17.2968 2.16268 18.058 2.13761C18.8192 2.11254 19.5614 2.37792 20.1342 2.87993L20.2782 3.01493L20.9852 3.72193C21.5235 4.26035 21.8369 4.98331 21.862 5.74426C21.8871 6.50522 21.6219 7.24724 21.1202 7.81993L20.9852 7.96393L9.77317 19.1769C9.61464 19.3354 9.4226 19.4564 9.21117 19.5309L9.04917 19.5779L4.59517 20.6059C4.43911 20.6422 4.27661 20.6405 4.12136 20.6009C3.96611 20.5612 3.82266 20.4849 3.70307 20.3782C3.58349 20.2716 3.49129 20.1378 3.43422 19.9881C3.37716 19.8383 3.35691 19.6771 3.37517 19.5179L3.39517 19.4049L4.42217 14.9499C4.47291 14.7314 4.57201 14.5271 4.71217 14.3519L4.82317 14.2269L16.0352 3.01493ZM15.3282 6.54993L6.33817 15.5399L5.70217 18.2979L8.46017 17.6609L17.4502 8.67093L15.3282 6.54993ZM18.8642 4.42893C18.692 4.25675 18.4629 4.15332 18.2199 4.13804C17.9768 4.12276 17.7366 4.19668 17.5442 4.34593L17.4502 4.42893L16.7422 5.13593L18.8642 7.25693L19.5712 6.54993C19.7433 6.37773 19.8468 6.14863 19.8621 5.90561C19.8773 5.66258 19.8034 5.42233 19.6542 5.22993L19.5712 5.13593L18.8642 4.42893Z" fill="#848484"/>
</svg>
