<svg width="40" height="40" viewBox="0 0 40 40" fill="none" xmlns="http://www.w3.org/2000/svg">
<path d="M24.3333 14.2222H24.3478M7 11.3333C7 10.1841 7.45655 9.08186 8.2692 8.2692C9.08186 7.45655 10.1841 7 11.3333 7H28.6667C29.8159 7 30.9181 7.45655 31.7308 8.2692C32.5435 9.08186 33 10.1841 33 11.3333V28.6667C33 29.8159 32.5435 30.9181 31.7308 31.7308C30.9181 32.5435 29.8159 33 28.6667 33H11.3333C10.1841 33 9.08186 32.5435 8.2692 31.7308C7.45655 30.9181 7 29.8159 7 28.6667V11.3333Z" stroke="#FF5694" stroke-width="2.5" stroke-linecap="round" stroke-linejoin="round"/>
<path d="M7 25.778L14.2222 18.5558C15.5627 17.2659 17.2151 17.2659 18.5556 18.5558L25.7778 25.778" stroke="#FF5694" stroke-width="2.5" stroke-linecap="round" stroke-linejoin="round"/>
<path d="M22.8887 22.8884L24.3331 21.444C25.6736 20.1541 27.326 20.1541 28.6664 21.444L32.9998 25.7773" stroke="#FF5694" stroke-width="2.5" stroke-linecap="round" stroke-linejoin="round"/>
<circle cx="25" cy="14" r="2" fill="#FF5694"/>
</svg>
