<svg width="12" height="12" viewBox="0 0 12 12" fill="none" xmlns="http://www.w3.org/2000/svg">
<path d="M3.52622 1.80359C3.48111 1.75585 3.44585 1.6997 3.42244 1.63833C3.39903 1.57697 3.38794 1.51159 3.3898 1.44594C3.39165 1.38029 3.40642 1.31565 3.43326 1.25571C3.4601 1.19576 3.49849 1.14169 3.54622 1.09659C3.59396 1.05148 3.65011 1.01621 3.71147 0.992804C3.77284 0.969396 3.83821 0.958304 3.90386 0.960161C3.96951 0.962018 4.03416 0.976788 4.0941 1.00363C4.15404 1.03047 4.20811 1.06885 4.25322 1.11659L8.50322 5.61658C8.59099 5.70942 8.63989 5.83233 8.63989 5.96008C8.63989 6.08784 8.59099 6.21075 8.50322 6.30359L4.25322 10.8041C4.20841 10.8529 4.15435 10.8923 4.09419 10.92C4.03403 10.9477 3.96896 10.9632 3.90276 10.9655C3.83656 10.9679 3.77056 10.957 3.70858 10.9337C3.6466 10.9103 3.58988 10.8748 3.54172 10.8294C3.49356 10.7839 3.45492 10.7293 3.42804 10.6688C3.40115 10.6082 3.38657 10.5429 3.38512 10.4767C3.38368 10.4105 3.39541 10.3446 3.41963 10.283C3.44386 10.2213 3.48009 10.1651 3.52622 10.1176L7.45222 5.96008L3.52622 1.80359Z" fill="#D9D9D9"/>
</svg>
