<svg width="32" height="32" viewBox="0 0 32 32" fill="none" xmlns="http://www.w3.org/2000/svg">
<rect width="32" height="32" fill="white"/>
<path d="M12.7 14.7L19.3 11.3M12.7 17.3L19.3 20.7M7 16C7 16.7956 7.31607 17.5587 7.87868 18.1213C8.44129 18.6839 9.20435 19 10 19C10.7956 19 11.5587 18.6839 12.1213 18.1213C12.6839 17.5587 13 16.7956 13 16C13 15.2044 12.6839 14.4413 12.1213 13.8787C11.5587 13.3161 10.7956 13 10 13C9.20435 13 8.44129 13.3161 7.87868 13.8787C7.31607 14.4413 7 15.2044 7 16ZM19 10C19 10.7956 19.3161 11.5587 19.8787 12.1213C20.4413 12.6839 21.2044 13 22 13C22.7956 13 23.5587 12.6839 24.1213 12.1213C24.6839 11.5587 25 10.7956 25 10C25 9.20435 24.6839 8.44129 24.1213 7.87868C23.5587 7.31607 22.7956 7 22 7C21.2044 7 20.4413 7.31607 19.8787 7.87868C19.3161 8.44129 19 9.20435 19 10ZM19 22C19 22.7956 19.3161 23.5587 19.8787 24.1213C20.4413 24.6839 21.2044 25 22 25C22.7956 25 23.5587 24.6839 24.1213 24.1213C24.6839 23.5587 25 22.7956 25 22C25 21.2044 24.6839 20.4413 24.1213 19.8787C23.5587 19.3161 22.7956 19 22 19C21.2044 19 20.4413 19.3161 19.8787 19.8787C19.3161 20.4413 19 21.2044 19 22Z" stroke="#FF5694" stroke-width="2" stroke-linecap="round" stroke-linejoin="round"/>
</svg>
