<svg width="40" height="40" viewBox="0 0 40 40" fill="none" xmlns="http://www.w3.org/2000/svg">
<path d="M18.2213 18.1818C20.1118 18.1818 21.6898 16.8992 21.6898 14.8621C21.6898 12.9305 20.3945 11.6621 18.6228 11.6621C17.7144 11.6621 17.015 12.0246 16.5837 12.7187C17.0449 10.5759 18.6374 9.15819 20.7966 9.06741C21.3772 9.03715 21.7939 8.62959 21.7939 8.05656C21.7939 7.36184 21.2432 7 20.4987 7C17.1491 7 14.1717 9.89733 14.1717 13.7154C14.1717 16.4311 15.958 18.1818 18.2207 18.1818M9.10816 18.1818C10.9993 18.1818 12.5772 16.8992 12.5772 14.8621C12.5772 12.9305 11.2673 11.6621 9.49566 11.6621C8.60251 11.6621 7.88786 12.0246 7.45589 12.7187C7.91708 10.5759 9.52551 9.173 11.6841 9.06741C12.2494 9.03715 12.6814 8.62959 12.6814 8.05656C12.6814 7.36184 12.116 7 11.3715 7C8.02189 7 5.04388 9.89733 5.04388 13.7154C5.04388 16.4311 6.84543 18.1818 9.10816 18.1818ZM25.4568 9.29275H33.8534C34.4937 9.29275 35 8.79506 35 8.14605C35 7.51186 34.4937 7.01416 33.854 7.01416H25.4561C25.3091 7.0127 25.1633 7.04098 25.0271 7.09736C24.891 7.15373 24.7674 7.23706 24.6635 7.34246C24.5595 7.44787 24.4774 7.57324 24.4218 7.71122C24.3663 7.84921 24.3385 7.99704 24.34 8.14605C24.34 8.79506 24.831 9.29275 25.4568 9.29275ZM25.4568 17.1999H33.8534C34.4937 17.1999 35 16.7022 35 16.0538C35 15.4196 34.4937 14.9213 33.854 14.9213H25.4561C25.3091 14.9198 25.1633 14.9481 25.0271 15.0045C24.891 15.0609 24.7674 15.1442 24.6635 15.2496C24.5595 15.355 24.4774 15.4804 24.4218 15.6184C24.3663 15.7563 24.3385 15.9042 24.34 16.0532C24.34 16.7022 24.831 17.1999 25.4568 17.1999ZM6.13141 25.1083H33.8534C34.0032 25.1099 34.1518 25.0815 34.2907 25.0246C34.4296 24.9677 34.5559 24.8834 34.6625 24.7768C34.7691 24.6701 34.8538 24.5431 34.9118 24.4031C34.9697 24.2631 34.9997 24.1128 35 23.961C35 23.3274 34.4937 22.8291 33.854 22.8291H6.13141C5.49109 22.8291 5.00005 23.3274 5.00005 23.961C5.00005 24.5952 5.49109 25.1083 6.13078 25.1083M6.13078 33H33.8528C34.4931 33 34.9994 32.5023 34.9994 31.8688C34.9994 31.2346 34.4931 30.7214 33.8534 30.7214H6.13141C5.98243 30.7201 5.83469 30.7489 5.69681 30.8061C5.55893 30.8633 5.43368 30.9478 5.32836 31.0546C5.22304 31.1614 5.13976 31.2884 5.08339 31.4282C5.02702 31.568 4.99869 31.7178 5.00005 31.8688C5.00005 32.5023 5.49109 33 6.13078 33Z" fill="#FF5694"/>
</svg>
