<svg width="43" height="24" viewBox="0 0 43 24" fill="none" xmlns="http://www.w3.org/2000/svg">
<path d="M38.9197 20.0382C38.1997 20.0382 37.6077 19.8302 37.1437 19.4142C36.6957 18.9822 36.4717 18.4542 36.4717 17.8302C36.4717 17.1902 36.6957 16.6542 37.1437 16.2222C37.6077 15.7902 38.1997 15.5742 38.9197 15.5742C39.6237 15.5742 40.1997 15.7902 40.6477 16.2222C41.1117 16.6542 41.3437 17.1902 41.3437 17.8302C41.3437 18.4542 41.1117 18.9822 40.6477 19.4142C40.1997 19.8302 39.6237 20.0382 38.9197 20.0382Z" fill="white"/>
<path d="M30.6431 19.848L27.2111 14.688L24.1871 19.848H19.5311L24.9311 11.28L19.4111 3H24.1871L27.5711 8.088L30.5471 3H35.2031L29.8511 11.496L35.4191 19.848H30.6431Z" fill="white"/>
<path d="M19.088 3L13.112 19.848H7.976L2 3H6.368L10.544 15.72L14.744 3H19.088Z" fill="white"/>
</svg>
