<svg width="32" height="32" viewBox="0 0 32 32" fill="none" xmlns="http://www.w3.org/2000/svg">
<path d="M11.5 23.2222V24.6667C11.5 25.8159 11.9741 26.9181 12.818 27.7308C13.6619 28.5435 14.8065 29 16 29C17.1935 29 18.3381 28.5435 19.182 27.7308C20.0259 26.9181 20.5 25.8159 20.5 24.6667V23.2222M13 5.88889C13 5.12271 13.3161 4.38791 13.8787 3.84614C14.4413 3.30436 15.2044 3 16 3C16.7957 3 17.5587 3.30436 18.1213 3.84614C18.6839 4.38791 19 5.12271 19 5.88889C20.7226 6.67326 22.1911 7.89425 23.2481 9.42099C24.3051 10.9477 24.9107 12.7227 25 14.5556V18.8889C25.1129 19.7869 25.4432 20.6469 25.9642 21.3995C26.4853 22.1522 27.1826 22.7765 28 23.2222H4C4.81741 22.7765 5.51471 22.1522 6.03578 21.3995C6.55685 20.6469 6.88712 19.7869 7 18.8889V14.5556C7.08934 12.7227 7.69495 10.9477 8.75192 9.42099C9.8089 7.89425 11.2774 6.67326 13 5.88889Z" stroke="white" stroke-width="2.5" stroke-linecap="round" stroke-linejoin="round"/>
<path d="M30 8C30 11.3137 27.3137 14 24 14C20.6863 14 18 11.3137 18 8C18 4.68629 20.6863 2 24 2C27.3137 2 30 4.68629 30 8Z" fill="#F8DC52"/>
</svg>
