<svg width="27" height="29" viewBox="0 0 27 29" fill="none" xmlns="http://www.w3.org/2000/svg">
<path d="M8.75 21.4722V22.9167C8.75 24.0659 9.22411 25.1681 10.068 25.9808C10.9119 26.7935 12.0565 27.25 13.25 27.25C14.4435 27.25 15.5881 26.7935 16.432 25.9808C17.2759 25.1681 17.75 24.0659 17.75 22.9167V21.4722M10.25 4.13889C10.25 3.37271 10.5661 2.63791 11.1287 2.09614C11.6913 1.55436 12.4544 1.25 13.25 1.25C14.0457 1.25 14.8087 1.55436 15.3713 2.09614C15.9339 2.63791 16.25 3.37271 16.25 4.13889C17.9726 4.92326 19.4411 6.14425 20.4981 7.67099C21.5551 9.19773 22.1607 10.9727 22.25 12.8056V17.1389C22.3629 18.0369 22.6932 18.8969 23.2142 19.6495C23.7353 20.4022 24.4326 21.0265 25.25 21.4722H1.25C2.06741 21.0265 2.76471 20.4022 3.28578 19.6495C3.80685 18.8969 4.13712 18.0369 4.25 17.1389V12.8056C4.33934 10.9727 4.94495 9.19773 6.00192 7.67099C7.0589 6.14425 8.52739 4.92326 10.25 4.13889Z" stroke="white" stroke-width="2.5" stroke-linecap="round" stroke-linejoin="round"/>
</svg>
