<svg width="16" height="16" viewBox="0 0 16 16" fill="none" xmlns="http://www.w3.org/2000/svg">
<g clip-path="url(#clip0_267_358)">
<path d="M7.2002 7.18442C7.2002 6.97225 7.28448 6.76876 7.43451 6.61873C7.58454 6.4687 7.78802 6.38442 8.0002 6.38442C8.21237 6.38442 8.41585 6.4687 8.56588 6.61873C8.71591 6.76876 8.8002 6.97225 8.8002 7.18442V11.9844C8.8002 12.1966 8.71591 12.4001 8.56588 12.5501C8.41585 12.7001 8.21237 12.7844 8.0002 12.7844C7.78802 12.7844 7.58454 12.7001 7.43451 12.5501C7.28448 12.4001 7.2002 12.1966 7.2002 11.9844V7.18442ZM8.0002 3.24121C7.78802 3.24121 7.58454 3.3255 7.43451 3.47553C7.28448 3.62556 7.2002 3.82904 7.2002 4.04121C7.2002 4.25339 7.28448 4.45687 7.43451 4.6069C7.58454 4.75693 7.78802 4.84121 8.0002 4.84121C8.21237 4.84121 8.41585 4.75693 8.56588 4.6069C8.71591 4.45687 8.8002 4.25339 8.8002 4.04121C8.8002 3.82904 8.71591 3.62556 8.56588 3.47553C8.41585 3.3255 8.21237 3.24121 8.0002 3.24121Z" fill="#FF0000"/>
<path fill-rule="evenodd" clip-rule="evenodd" d="M8.00002 0C3.58161 0 0 3.58161 0 8.00002C0 12.4184 3.58161 16 8.00002 16C12.4184 16 16 12.4184 16 8.00002C16 3.58161 12.4184 0 8.00002 0ZM1.6 8.00002C1.6 9.69741 2.27429 11.3253 3.47453 12.5255C4.67476 13.7258 6.30263 14.4 8.00002 14.4C9.69741 14.4 11.3253 13.7258 12.5255 12.5255C13.7258 11.3253 14.4 9.69741 14.4 8.00002C14.4 6.30263 13.7258 4.67476 12.5255 3.47453C11.3253 2.27429 9.69741 1.6 8.00002 1.6C6.30263 1.6 4.67476 2.27429 3.47453 3.47453C2.27429 4.67476 1.6 6.30263 1.6 8.00002Z" fill="#FF0000"/>
</g>
<defs>
<clipPath id="clip0_267_358">
<rect width="16" height="16" fill="white"/>
</clipPath>
</defs>
</svg>
