<svg width="16" height="16" viewBox="0 0 16 16" fill="none" xmlns="http://www.w3.org/2000/svg">
<g clip-path="url(#clip0_2348_11383)">
<path d="M8 3.42773V7.99916H11.4286" stroke="#848484" stroke-width="1.3" stroke-linecap="round" stroke-linejoin="round"/>
<path d="M14.8571 7.99972C14.8571 8.90021 14.6797 9.79189 14.3351 10.6238C13.9905 11.4558 13.4854 12.2117 12.8487 12.8485C12.212 13.4852 11.456 13.9903 10.6241 14.3349C9.79213 14.6795 8.90046 14.8569 7.99997 14.8569C7.09947 14.8569 6.2078 14.6795 5.37585 14.3349C4.5439 13.9903 3.78798 13.4852 3.15123 12.8485C2.51449 12.2117 2.00939 11.4558 1.66479 10.6238C1.32019 9.79189 1.14282 8.90021 1.14282 7.99972C1.14282 6.18109 1.86527 4.43695 3.15123 3.15099C4.4372 1.86503 6.18134 1.14258 7.99997 1.14258C9.81859 1.14258 11.5627 1.86503 12.8487 3.15099C14.1347 4.43695 14.8571 6.18109 14.8571 7.99972Z" stroke="#848484" stroke-width="1.3" stroke-linecap="round" stroke-linejoin="round"/>
</g>
<defs>
<clipPath id="clip0_2348_11383">
<rect width="16" height="16" fill="white"/>
</clipPath>
</defs>
</svg>
