<svg width="16" height="16" viewBox="0 0 16 16" fill="none" xmlns="http://www.w3.org/2000/svg">
<path d="M12.1569 6.13437C12.2046 6.09145 12.2607 6.05789 12.322 6.03562C12.3834 6.01335 12.4487 6.00279 12.5143 6.00456C12.5799 6.00633 12.6445 6.02038 12.7044 6.04592C12.7643 6.07146 12.8184 6.10798 12.8635 6.1534C12.9085 6.19882 12.9438 6.25225 12.9672 6.31063C12.9906 6.36902 13.0017 6.43122 12.9998 6.49369C12.9979 6.55616 12.9832 6.61766 12.9564 6.6747C12.9295 6.73174 12.8912 6.78318 12.8435 6.8261L8.34611 10.87C8.25333 10.9535 8.13049 11 8.00281 11C7.87513 11 7.75229 10.9535 7.65951 10.87L3.16165 6.8261C3.1129 6.78347 3.07353 6.73203 3.04583 6.67479C3.01814 6.61754 3.00267 6.55563 3.00031 6.49264C2.99796 6.42965 3.00878 6.36685 3.03214 6.30788C3.0555 6.24891 3.09093 6.19494 3.13638 6.14912C3.18184 6.10329 3.2364 6.06652 3.2969 6.04094C3.3574 6.01536 3.42264 6.00148 3.48883 6.00011C3.55501 5.99874 3.62082 6.0099 3.68244 6.03295C3.74405 6.056 3.80024 6.09047 3.84775 6.13437L8.00281 9.86994L12.1569 6.13437Z" fill="#FF5694"/>
</svg>
