<svg width="14" height="14" viewBox="0 0 14 14" fill="none" xmlns="http://www.w3.org/2000/svg">
<g clip-path="url(#clip0_3411_4804)">
<path d="M14 1.53125C14 0.686 13.314 0 12.4688 0H1.53125C0.686 0 0 0.686 0 1.53125V9.84375C0 10.2499 0.161327 10.6393 0.448492 10.9265C0.735658 11.2137 1.12514 11.375 1.53125 11.375H6.9475L9.19887 13.6264C9.37733 13.8042 9.60442 13.9251 9.85152 13.974C10.0986 14.023 10.3547 13.9976 10.5874 13.9012C10.8201 13.8049 11.0191 13.6417 11.1593 13.4324C11.2994 13.2231 11.3745 12.977 11.375 12.7251V11.375H12.4688C12.8749 11.375 13.2643 11.2137 13.5515 10.9265C13.8387 10.6393 14 10.2499 14 9.84375V1.53125ZM12.4688 1.3125C12.5268 1.3125 12.5824 1.33555 12.6234 1.37657C12.6645 1.41759 12.6875 1.47323 12.6875 1.53125V9.84375C12.6875 9.9645 12.5895 10.0625 12.4688 10.0625H10.7188C10.5447 10.0625 10.3778 10.1316 10.2547 10.2547C10.1316 10.3778 10.0625 10.5447 10.0625 10.7187V12.635L7.6825 10.255C7.55955 10.1319 7.39274 10.0627 7.21875 10.0625H1.53125C1.47323 10.0625 1.41759 10.0395 1.37657 9.99843C1.33555 9.95741 1.3125 9.90177 1.3125 9.84375V1.53125C1.3125 1.47323 1.33555 1.41759 1.37657 1.37657C1.41759 1.33555 1.47323 1.3125 1.53125 1.3125H12.4688ZM6.34375 3.28125V5.46875C6.34375 5.6428 6.41289 5.80972 6.53596 5.93279C6.65903 6.05586 6.82595 6.125 7 6.125C7.17405 6.125 7.34097 6.05586 7.46404 5.93279C7.58711 5.80972 7.65625 5.6428 7.65625 5.46875V3.28125C7.65625 3.1072 7.58711 2.94028 7.46404 2.81721C7.34097 2.69414 7.17405 2.625 7 2.625C6.82595 2.625 6.65903 2.69414 6.53596 2.81721C6.41289 2.94028 6.34375 3.1072 6.34375 3.28125ZM6.125 7.875C6.125 8.10706 6.21719 8.32962 6.38128 8.49372C6.54538 8.65781 6.76794 8.75 7 8.75C7.23206 8.75 7.45462 8.65781 7.61872 8.49372C7.78281 8.32962 7.875 8.10706 7.875 7.875C7.875 7.64294 7.78281 7.42038 7.61872 7.25628C7.45462 7.09219 7.23206 7 7 7C6.76794 7 6.54538 7.09219 6.38128 7.25628C6.21719 7.42038 6.125 7.64294 6.125 7.875Z" fill="#FF2626"/>
</g>
<defs>
<clipPath id="clip0_3411_4804">
<rect width="14" height="14" fill="white" transform="matrix(-1 0 0 1 14 0)"/>
</clipPath>
</defs>
</svg>
