<svg width="12" height="12" viewBox="0 0 12 12" fill="none" xmlns="http://www.w3.org/2000/svg">
<path d="M9.11765 4.60077C9.15343 4.56858 9.19552 4.54342 9.24152 4.52671C9.28752 4.51001 9.33652 4.50209 9.38573 4.50342C9.43494 4.50474 9.48339 4.51529 9.52832 4.53444C9.57325 4.55359 9.61378 4.58098 9.64759 4.61505C9.6814 4.64911 9.70784 4.68918 9.72538 4.73298C9.74293 4.77677 9.75124 4.82342 9.74985 4.87027C9.74846 4.91712 9.73739 4.96325 9.71727 5.00603C9.69715 5.0488 9.66838 5.08739 9.6326 5.11958L6.25958 8.15247C6.19 8.2151 6.09787 8.25 6.00211 8.25C5.90635 8.25 5.81422 8.2151 5.74463 8.15247L2.37124 5.11958C2.33467 5.0876 2.30515 5.04902 2.28437 5.00609C2.2636 4.96316 2.252 4.91672 2.25024 4.86948C2.24847 4.82224 2.25659 4.77514 2.27411 4.73091C2.29163 4.68668 2.3182 4.64621 2.35229 4.61184C2.38638 4.57747 2.4273 4.54989 2.47267 4.53071C2.51805 4.51152 2.56698 4.50111 2.61662 4.50008C2.66626 4.49906 2.71562 4.50743 2.76183 4.52471C2.80804 4.542 2.85018 4.56785 2.88581 4.60077L6.00211 7.40245L9.11765 4.60077Z" fill="#999999"/>
</svg>
