<svg width="89" height="16" viewBox="0 0 89 16" fill="none" xmlns="http://www.w3.org/2000/svg">
<path d="M86.8175 15.9998C86.1692 15.9998 85.6361 15.8145 85.2184 15.4437C84.815 15.0587 84.6133 14.5881 84.6133 14.0319C84.6133 13.4615 84.815 12.9838 85.2184 12.5988C85.6361 12.2138 86.1692 12.0212 86.8175 12.0212C87.4514 12.0212 87.97 12.2138 88.3734 12.5988C88.7912 12.9838 89.0001 13.4615 89.0001 14.0319C89.0001 14.5881 88.7912 15.0587 88.3734 15.4437C87.97 15.8145 87.4514 15.9998 86.8175 15.9998Z" fill="#999999"/>
<path d="M78.9327 15.8288L75.8425 11.2298L73.1197 15.8288H68.9274L73.7896 8.19241L68.8193 0.812744H73.1197L76.1667 5.34749L78.8463 0.812744H83.0386L78.2196 8.38492L83.2331 15.8288H78.9327Z" fill="#999999"/>
<path d="M66.3975 6.802V9.83943H56.8892V6.802H66.3975Z" fill="#999999"/>
<path d="M51.116 15.8288L47.4423 10.8235V15.8288H43.7471V0H47.4423V8.74864L51.0944 3.89304H55.6541L50.6406 9.88233L55.6973 15.8288H51.116Z" fill="#999999"/>
<path d="M38.1987 5.88229C38.6309 5.22632 39.1711 4.71295 39.8194 4.34219C40.4677 3.95716 41.188 3.76465 41.9804 3.76465V7.6363H40.9647C40.0427 7.6363 39.3512 7.83594 38.8902 8.23523C38.4292 8.62025 38.1987 9.30474 38.1987 10.2887V15.8288H34.5034V3.89299H38.1987V5.88229Z" fill="#999999"/>
<path d="M19.1025 9.83956C19.1025 8.61318 19.333 7.53653 19.7941 6.60962C20.2695 5.6827 20.9106 4.96969 21.7173 4.47059C22.5241 3.97148 23.4245 3.72192 24.4185 3.72192C25.2685 3.72192 26.0105 3.89305 26.6443 4.23529C27.2926 4.57754 27.7897 5.02673 28.1354 5.58288V3.89305H31.8307V15.8288H28.1354V14.139C27.7753 14.6952 27.271 15.1444 26.6227 15.4866C25.9889 15.8288 25.2469 16 24.3969 16C23.4173 16 22.5241 15.7504 21.7173 15.2513C20.9106 14.7379 20.2695 14.0178 19.7941 13.0909C19.333 12.1497 19.1025 11.0659 19.1025 9.83956ZM28.1354 9.86095C28.1354 8.94829 27.8761 8.22815 27.3575 7.70052C26.8532 7.1729 26.2338 6.90908 25.499 6.90908C24.7643 6.90908 24.1376 7.1729 23.619 7.70052C23.1148 8.21389 22.8626 8.9269 22.8626 9.83956C22.8626 10.7522 23.1148 11.4795 23.619 12.0214C24.1376 12.549 24.7643 12.8128 25.499 12.8128C26.2338 12.8128 26.8532 12.549 27.3575 12.0214C27.8761 11.4937 28.1354 10.7736 28.1354 9.86095Z" fill="#999999"/>
<path d="M17.1798 0.812744V15.8288H13.4845V6.82343L10.0918 15.8288H7.10962L3.69527 6.80204V15.8288H0V0.812744H4.36517L8.6223 11.2084L12.8362 0.812744H17.1798Z" fill="#999999"/>
</svg>
