<svg width="16" height="16" viewBox="0 0 16 16" fill="none" xmlns="http://www.w3.org/2000/svg">
<g clip-path="url(#clip0_4906_26507)">
<path fill-rule="evenodd" clip-rule="evenodd" d="M0 2.22222C0 1.63285 0.234126 1.06762 0.650874 0.650874C1.06762 0.234126 1.63285 0 2.22222 0H13.3333C14.0406 0 14.7189 0.280952 15.219 0.781049C15.719 1.28115 16 1.95942 16 2.66667V15.1111C16 15.2693 15.9579 15.4246 15.8779 15.561C15.7979 15.6974 15.6829 15.8101 15.5449 15.8872C15.4068 15.9644 15.2507 16.0034 15.0925 16.0001C14.9344 15.9968 14.78 15.9513 14.6453 15.8684L12.2222 14.3769L9.79911 15.8684C9.65903 15.9546 9.4978 16.0002 9.33333 16.0002C9.16887 16.0002 9.00763 15.9546 8.86756 15.8684L6.44444 14.3769L4.02133 15.8684C3.88663 15.9513 3.73224 15.9968 3.57412 16.0001C3.41599 16.0034 3.25985 15.9644 3.1218 15.8872C2.98375 15.8101 2.86879 15.6974 2.78878 15.561C2.70878 15.4246 2.66662 15.2693 2.66667 15.1111V9.77778H0.888889C0.653141 9.77778 0.427048 9.68413 0.260349 9.51743C0.0936505 9.35073 0 9.12464 0 8.88889V2.22222ZM4.44444 13.52L5.97867 12.576C6.11874 12.4898 6.27998 12.4442 6.44444 12.4442C6.60891 12.4442 6.77015 12.4898 6.91022 12.576L9.33333 14.0676L11.7564 12.576C11.8965 12.4898 12.0578 12.4442 12.2222 12.4442C12.3867 12.4442 12.5479 12.4898 12.688 12.576L14.2222 13.52V2.66667C14.2222 2.43092 14.1286 2.20483 13.9619 2.03813C13.7952 1.87143 13.5691 1.77778 13.3333 1.77778H4.4C4.42963 1.92178 4.44444 2.06993 4.44444 2.22222V13.52ZM2.22222 1.77778C2.10435 1.77778 1.9913 1.8246 1.90795 1.90795C1.8246 1.9913 1.77778 2.10435 1.77778 2.22222V8H2.66667V2.22222C2.66667 2.10435 2.61984 1.9913 2.53649 1.90795C2.45314 1.8246 2.3401 1.77778 2.22222 1.77778ZM6.22222 5.33333C6.22222 5.09759 6.31587 4.87149 6.48257 4.70479C6.64927 4.53809 6.87536 4.44444 7.11111 4.44444H11.5556C11.7913 4.44444 12.0174 4.53809 12.1841 4.70479C12.3508 4.87149 12.4444 5.09759 12.4444 5.33333C12.4444 5.56908 12.3508 5.79517 12.1841 5.96187C12.0174 6.12857 11.7913 6.22222 11.5556 6.22222H7.11111C6.87536 6.22222 6.64927 6.12857 6.48257 5.96187C6.31587 5.79517 6.22222 5.56908 6.22222 5.33333ZM6.22222 8.88889C6.22222 8.65314 6.31587 8.42705 6.48257 8.26035C6.64927 8.09365 6.87536 8 7.11111 8H10.6667C10.9024 8 11.1285 8.09365 11.2952 8.26035C11.4619 8.42705 11.5556 8.65314 11.5556 8.88889C11.5556 9.12464 11.4619 9.35073 11.2952 9.51743C11.1285 9.68413 10.9024 9.77778 10.6667 9.77778H7.11111C6.87536 9.77778 6.64927 9.68413 6.48257 9.51743C6.31587 9.35073 6.22222 9.12464 6.22222 8.88889Z" fill="#848484"/>
</g>
<defs>
<clipPath id="clip0_4906_26507">
<rect width="16" height="16" fill="white"/>
</clipPath>
</defs>
</svg>
