<svg width="16" height="16" viewBox="0 0 16 16" fill="none" xmlns="http://www.w3.org/2000/svg">
<path d="M10.4733 8.47179C11.1269 7.95756 11.604 7.2524 11.8382 6.45442C12.0723 5.65643 12.0519 4.8053 11.7799 4.01943C11.5078 3.23357 10.9975 2.55205 10.32 2.06969C9.64259 1.58733 8.83163 1.32813 8 1.32812C7.16836 1.32812 6.35741 1.58733 5.67995 2.06969C5.00249 2.55205 4.49223 3.23357 4.22014 4.01943C3.94805 4.8053 3.92767 5.65643 4.16184 6.45442C4.396 7.2524 4.87307 7.95756 5.52666 8.47179C4.40672 8.92048 3.42952 9.66469 2.69926 10.6251C1.969 11.5854 1.51304 12.726 1.38 13.9251C1.37037 14.0127 1.37808 14.1013 1.40268 14.1858C1.42729 14.2704 1.46831 14.3493 1.52341 14.418C1.63468 14.5568 1.79652 14.6457 1.97333 14.6651C2.15014 14.6846 2.32744 14.633 2.46621 14.5217C2.60499 14.4104 2.69388 14.2486 2.71333 14.0718C2.85972 12.7686 3.48112 11.565 4.45881 10.691C5.4365 9.81697 6.70193 9.33381 8.01333 9.33381C9.32473 9.33381 10.5902 9.81697 11.5679 10.691C12.5455 11.565 13.1669 12.7686 13.3133 14.0718C13.3315 14.2356 13.4096 14.3869 13.5327 14.4965C13.6558 14.606 13.8152 14.6661 13.98 14.6651H14.0533C14.2281 14.645 14.3878 14.5566 14.4977 14.4193C14.6076 14.2819 14.6587 14.1067 14.64 13.9318C14.5063 12.7293 14.0479 11.5858 13.3139 10.6239C12.5799 9.66207 11.5979 8.91811 10.4733 8.47179ZM8 7.99845C7.47258 7.99845 6.95701 7.84206 6.51848 7.54904C6.07995 7.25602 5.73815 6.83955 5.53632 6.35228C5.33448 5.86501 5.28168 5.32883 5.38457 4.81155C5.48746 4.29427 5.74144 3.81911 6.11438 3.44617C6.48732 3.07323 6.96247 2.81926 7.47976 2.71636C7.99704 2.61347 8.53322 2.66628 9.02049 2.86811C9.50776 3.06994 9.92423 3.41174 10.2172 3.85027C10.5103 4.2888 10.6667 4.80437 10.6667 5.33179C10.6667 6.03903 10.3857 6.71731 9.88562 7.21741C9.38552 7.7175 8.70724 7.99845 8 7.99845Z" fill="#FF5694" stroke="#FF5694" stroke-width="0.2"/>
</svg>
