<svg width="16" height="16" viewBox="0 0 16 16" fill="none" xmlns="http://www.w3.org/2000/svg">
<g clip-path="url(#clip0_3717_17734)">
<path d="M13.8929 10.7841V8.56684C13.8929 8.28284 13.78 8.01046 13.579 7.80964C13.3781 7.60881 13.1056 7.49599 12.8214 7.49599H8.53571V5.35428H9.60714C9.8913 5.35428 10.1638 5.24146 10.3648 5.04063C10.5657 4.83981 10.6786 4.56743 10.6786 4.28342V1.07086C10.6786 0.786847 10.5657 0.514471 10.3648 0.313646C10.1638 0.112822 9.8913 0 9.60714 0H6.39286C6.1087 0 5.83618 0.112822 5.63524 0.313646C5.43431 0.514471 5.32143 0.786847 5.32143 1.07086V4.28342C5.32143 4.56743 5.43431 4.83981 5.63524 5.04063C5.83618 5.24146 6.1087 5.35428 6.39286 5.35428H7.46429V7.49599H3.17857C2.89441 7.49599 2.62189 7.60881 2.42096 7.80964C2.22003 8.01046 2.10715 8.28284 2.10715 8.56684V10.7846C1.60215 10.9149 1.16205 11.2248 0.869325 11.6563C0.576605 12.0877 0.451366 12.611 0.517084 13.1282C0.582803 13.6453 0.834966 14.1207 1.22631 14.4653C1.61765 14.8099 2.1213 15 2.64286 15C3.16442 15 3.66807 14.8099 4.05941 14.4653C4.45076 14.1207 4.70292 13.6453 4.76864 13.1282C4.83436 12.611 4.70912 12.0877 4.4164 11.6563C4.12368 11.2248 3.68357 10.9149 3.17857 10.7846V8.56684H7.46429V10.7846C6.95929 10.9149 6.51919 11.2248 6.22646 11.6563C5.93374 12.0877 5.80851 12.611 5.87422 13.1282C5.93994 13.6453 6.19211 14.1207 6.58345 14.4653C6.97479 14.8099 7.47844 15 8 15C8.52156 15 9.02521 14.8099 9.41655 14.4653C9.80789 14.1207 10.0601 13.6453 10.1258 13.1282C10.1915 12.611 10.0663 12.0877 9.77354 11.6563C9.48081 11.2248 9.04071 10.9149 8.53571 10.7846V8.56684H12.8214V10.7841C12.3164 10.9144 11.8763 11.2243 11.5836 11.6557C11.2909 12.0872 11.1656 12.6105 11.2314 13.1276C11.2971 13.6447 11.5492 14.1202 11.9406 14.4648C12.3319 14.8093 12.8356 14.9995 13.3571 14.9995C13.8787 14.9995 14.3823 14.8093 14.7737 14.4648C15.165 14.1202 15.4172 13.6447 15.4829 13.1276C15.5486 12.6105 15.4234 12.0872 15.1307 11.6557C14.838 11.2243 14.3978 10.9144 13.8929 10.7841ZM6.39286 1.07086H9.60714L9.60768 4.28342H6.39286V1.07086ZM3.71429 12.8503C3.71429 13.0621 3.65145 13.2691 3.53372 13.4452C3.41599 13.6213 3.24866 13.7586 3.05288 13.8396C2.8571 13.9207 2.64167 13.9419 2.43384 13.9005C2.226 13.8592 2.03509 13.7572 1.88525 13.6075C1.7354 13.4577 1.63336 13.2669 1.59202 13.0592C1.55068 12.8515 1.5719 12.6361 1.65299 12.4405C1.73408 12.2448 1.87141 12.0775 2.04761 11.9599C2.2238 11.8422 2.43095 11.7794 2.64286 11.7794C2.92702 11.7794 3.19954 11.8922 3.40047 12.0931C3.60141 12.2939 3.71429 12.5663 3.71429 12.8503ZM9.07143 12.8503C9.07143 13.0621 9.00859 13.2691 8.89086 13.4452C8.77313 13.6213 8.6058 13.7586 8.41002 13.8396C8.21424 13.9207 7.99881 13.9419 7.79097 13.9005C7.58314 13.8592 7.39223 13.7572 7.24239 13.6075C7.09254 13.4577 6.9905 13.2669 6.94916 13.0592C6.90782 12.8515 6.92904 12.6361 7.01013 12.4405C7.09122 12.2448 7.22855 12.0775 7.40475 11.9599C7.58094 11.8422 7.78809 11.7794 8 11.7794C8.28403 11.7798 8.5563 11.8928 8.75714 12.0935C8.95798 12.2943 9.071 12.5664 9.07143 12.8503ZM13.3571 13.9211C13.1452 13.9211 12.9381 13.8583 12.7619 13.7407C12.5857 13.623 12.4484 13.4557 12.3673 13.2601C12.2862 13.0644 12.265 12.8491 12.3063 12.6414C12.3476 12.4336 12.4497 12.2428 12.5995 12.0931C12.7494 11.9433 12.9403 11.8413 13.1481 11.8C13.356 11.7587 13.5714 11.7799 13.7672 11.8609C13.9629 11.942 14.1303 12.0792 14.248 12.2553C14.3657 12.4314 14.4286 12.6385 14.4286 12.8503C14.4286 13.1343 14.3157 13.4067 14.1148 13.6075C13.9138 13.8083 13.6413 13.9211 13.3571 13.9211Z" fill="#444444" stroke="#444444" stroke-width="0.2"/>
</g>
<defs>
<clipPath id="clip0_3717_17734">
<rect width="16" height="16" fill="white"/>
</clipPath>
</defs>
</svg>
