<svg width="16" height="16" viewBox="0 0 16 16" fill="none" xmlns="http://www.w3.org/2000/svg">
<g clip-path="url(#clip0_3712_26259)">
<path fill-rule="evenodd" clip-rule="evenodd" d="M11.8502 1.65234C12.0676 1.65234 12.2819 1.70295 12.4763 1.80014C12.6707 1.89734 12.8398 2.03846 12.9702 2.21233L14.8518 4.72107C14.946 4.84493 14.9962 4.99666 14.9946 5.15226H15.0002V5.85225C15.0002 6.53428 14.7513 7.19288 14.3002 7.7044V12.8521C14.3002 13.2234 14.1527 13.5795 13.8901 13.842C13.6276 14.1046 13.2715 14.2521 12.9002 14.2521H3.10044C2.72915 14.2521 2.37306 14.1046 2.11051 13.842C1.84797 13.5795 1.70047 13.2234 1.70047 12.8521V7.7044C1.24935 7.19288 1.00045 6.53428 1.00049 5.85225V5.15226H1.00609C1.00443 4.99666 1.05468 4.84493 1.14888 4.72107L3.03044 2.21233C3.16084 2.03846 3.32994 1.89734 3.52433 1.80014C3.71872 1.70295 3.93308 1.65234 4.15042 1.65234H11.8502ZM10.1003 7.7044C9.83751 8.0023 9.51436 8.24088 9.1523 8.40429C8.79024 8.5677 8.39755 8.6522 8.00033 8.65218C7.6031 8.6522 7.21041 8.5677 6.84835 8.40429C6.48629 8.24088 6.16314 8.0023 5.90037 7.7044C5.57846 8.07048 5.16634 8.34593 4.70498 8.50336C4.24361 8.66079 3.74908 8.69472 3.27054 8.60178L3.10044 8.56398V12.8521H12.9002V8.56398L12.7301 8.60178C12.2515 8.69464 11.7569 8.6606 11.2956 8.50304C10.8342 8.34549 10.4221 8.07061 10.1003 7.7044ZM13.6002 5.85225H10.8003C10.7986 6.21553 10.9383 6.56521 11.1897 6.82743C11.4411 7.08965 11.7847 7.24386 12.1477 7.25749C12.5107 7.27112 12.8648 7.1431 13.1352 6.90048C13.4056 6.65785 13.5711 6.31962 13.5967 5.95724L13.6002 5.85225ZM9.40029 5.85225H6.60036C6.59873 6.21553 6.73839 6.56521 6.98981 6.82743C7.24124 7.08965 7.58476 7.24386 7.94778 7.25749C8.31081 7.27112 8.66492 7.1431 8.93531 6.90048C9.20569 6.65785 9.37117 6.31962 9.39679 5.95724L9.40029 5.85225ZM5.20039 5.85225H2.40046C2.39883 6.21553 2.53848 6.56521 2.78991 6.82743C3.04134 7.08965 3.38485 7.24386 3.74788 7.25749C4.11091 7.27112 4.46502 7.1431 4.7354 6.90048C5.00579 6.65785 5.17127 6.31962 5.19689 5.95724L5.20039 5.85225ZM11.8502 3.05231H4.15042L3.10044 4.45228H12.9002L11.8502 3.05231Z" fill="#444444"/>
</g>
<defs>
<clipPath id="clip0_3712_26259">
<rect width="16" height="16" fill="white"/>
</clipPath>
</defs>
</svg>
