<svg width="16" height="16" viewBox="0 0 16 16" fill="none" xmlns="http://www.w3.org/2000/svg">
<path d="M5.52043 1.30078H9.03904C9.31899 1.30078 9.58748 1.41199 9.78544 1.60995C9.98341 1.80791 10.0946 2.07641 10.0946 2.35636C10.0946 3.0096 9.83512 3.63608 9.37321 4.09799C8.91131 4.55989 8.28483 4.81939 7.63159 4.81939H6.92787C6.27463 4.81939 5.64815 4.55989 5.18625 4.09799C4.72434 3.63608 4.46484 3.0096 4.46484 2.35636C4.46484 2.07641 4.57606 1.80791 4.77402 1.60995C4.97198 1.41199 5.24047 1.30078 5.52043 1.30078Z" stroke="#FF5694" stroke-width="1.3" stroke-linecap="round" stroke-linejoin="round"/>
<path d="M7.63154 13.9664H4.46479C3.71824 13.9664 3.00226 13.6698 2.47436 13.1419C1.94647 12.614 1.6499 11.8981 1.6499 11.1515V10.4478C1.64955 9.20533 2.06021 7.99766 2.81789 7.01298C3.57557 6.0283 4.63771 5.32192 5.83877 5.00393C7.03983 4.68593 8.31235 4.77418 9.45802 5.25492C10.6037 5.73567 11.5581 6.5819 12.1727 7.66174M10.0946 12.5589H14.3169M10.0946 12.5589L12.2057 10.4478M10.0946 12.5589L12.2057 14.6701" stroke="#FF5694" stroke-width="1.3" stroke-linecap="round" stroke-linejoin="round"/>
</svg>
