<svg width="16" height="16" viewBox="0 0 16 16" fill="none" xmlns="http://www.w3.org/2000/svg">
<path d="M5.5625 7.625C5.41332 7.625 5.27024 7.68426 5.16475 7.78975C5.05926 7.89524 5 8.03832 5 8.1875C5 8.33668 5.05926 8.47976 5.16475 8.58525C5.27024 8.69074 5.41332 8.75 5.5625 8.75H10.4375C10.5867 8.75 10.7298 8.69074 10.8352 8.58525C10.9407 8.47976 11 8.33668 11 8.1875C11 8.03832 10.9407 7.89524 10.8352 7.78975C10.7298 7.68426 10.5867 7.625 10.4375 7.625H5.5625ZM5.5625 9.6875C5.41332 9.6875 5.27024 9.74676 5.16475 9.85225C5.05926 9.95774 5 10.1008 5 10.25C5 10.3992 5.05926 10.5423 5.16475 10.6477C5.27024 10.7532 5.41332 10.8125 5.5625 10.8125H10.4375C10.5867 10.8125 10.7298 10.7532 10.8352 10.6477C10.9407 10.5423 11 10.3992 11 10.25C11 10.1008 10.9407 9.95774 10.8352 9.85225C10.7298 9.74676 10.5867 9.6875 10.4375 9.6875H5.5625ZM5.5625 11.75C5.41332 11.75 5.27024 11.8093 5.16475 11.9148C5.05926 12.0202 5 12.1633 5 12.3125C5 12.4617 5.05926 12.6048 5.16475 12.7102C5.27024 12.8157 5.41332 12.875 5.5625 12.875H10.4375C10.5867 12.875 10.7298 12.8157 10.8352 12.7102C10.9407 12.6048 11 12.4617 11 12.3125C11 12.1633 10.9407 12.0202 10.8352 11.9148C10.7298 11.8093 10.5867 11.75 10.4375 11.75H5.5625ZM9.18875 0.9395L13.5605 5.3105C13.8418 5.59174 13.9999 5.97321 14 6.371V14C14 14.3978 13.842 14.7794 13.5607 15.0607C13.2794 15.342 12.8978 15.5 12.5 15.5H3.5C3.10218 15.5 2.72064 15.342 2.43934 15.0607C2.15804 14.7794 2 14.3978 2 14V2C2 1.60218 2.15804 1.22064 2.43934 0.93934C2.72064 0.658035 3.10218 0.5 3.5 0.5H8.129C8.15 0.5005 8.1705 0.50225 8.1905 0.50525C8.2055 0.50775 8.22025 0.5095 8.23475 0.5105C8.396 0.52175 8.555 0.5525 8.70275 0.614C8.7455 0.632 8.78675 0.656 8.82725 0.67925L8.86475 0.701L8.9 0.719C8.92075 0.72906 8.94102 0.740072 8.96075 0.752C9.01925 0.79175 9.07175 0.839 9.125 0.887L9.152 0.9095L9.18875 0.9395ZM12.5 14.375C12.5995 14.375 12.6948 14.3355 12.7652 14.2652C12.8355 14.1948 12.875 14.0995 12.875 14V6.5H9.5C9.10218 6.5 8.72064 6.34196 8.43934 6.06066C8.15804 5.77936 8 5.39782 8 5V1.625H3.5C3.40054 1.625 3.30516 1.66451 3.23484 1.73484C3.16451 1.80516 3.125 1.90054 3.125 2V14C3.125 14.0995 3.16451 14.1948 3.23484 14.2652C3.30516 14.3355 3.40054 14.375 3.5 14.375H12.5ZM12.0335 5.375L9.125 2.46575V5C9.125 5.09946 9.16451 5.19484 9.23483 5.26517C9.30516 5.33549 9.40054 5.375 9.5 5.375H12.0335Z" fill="#444444" stroke="#444444" stroke-width="0.1"/>
</svg>
