<svg width="16" height="16" viewBox="0 0 16 16" fill="none" xmlns="http://www.w3.org/2000/svg">
<path d="M8.96715 2H4.44493C4.12078 2 3.8099 2.12643 3.58069 2.35147C3.35148 2.57652 3.22271 2.88174 3.22271 3.2V12.8C3.22271 13.1183 3.35148 13.4235 3.58069 13.6485C3.8099 13.8736 4.12078 14 4.44493 14H11.7783C12.1024 14 12.4133 13.8736 12.6425 13.6485C12.8717 13.4235 13.0005 13.1183 13.0005 12.8V8.36M2.00049 4.4H4.44493M2.00049 6.8H4.44493M2.00049 9.2H4.44493M2.00049 11.6H4.44493" stroke="#FF5694" stroke-width="1.2" stroke-linecap="round" stroke-linejoin="round"/>
<path d="M13.6272 4.17609C13.8662 3.93703 14.0005 3.6128 14.0005 3.27473C14.0005 2.93665 13.8662 2.61242 13.6272 2.37336C13.3881 2.1343 13.0639 2 12.7259 2C12.3878 2 12.0636 2.1343 11.8246 2.37336L8.81836 5.38111C8.67569 5.52371 8.57127 5.69997 8.51473 5.89361L8.01249 7.61593C7.99743 7.66757 7.99653 7.7223 8.00988 7.77441C8.02322 7.82652 8.05033 7.87408 8.08836 7.91212C8.1264 7.95015 8.17395 7.97726 8.22605 7.99061C8.27816 8.00396 8.33289 8.00306 8.38452 7.988L10.1067 7.4857C10.3003 7.42916 10.4765 7.32473 10.6191 7.18205L13.6272 4.17609Z" stroke="#FF5694" stroke-width="1.2" stroke-linecap="round" stroke-linejoin="round"/>
</svg>
