<svg width="16" height="16" viewBox="0 0 16 16" fill="none" xmlns="http://www.w3.org/2000/svg">
<path d="M15.5 2.64082C15.5 1.73509 14.765 1 13.8594 1H2.14062C1.235 1 0.5 1.73509 0.5 2.64082V11.5481C0.5 11.9833 0.672851 12.4007 0.980528 12.7084C1.2882 13.0161 1.7055 13.189 2.14062 13.189H7.94375L10.3559 15.6014C10.5471 15.7919 10.7905 15.9216 11.0552 15.974C11.32 16.0264 11.5943 15.9992 11.8436 15.896C12.093 15.7927 12.3062 15.6179 12.4564 15.3936C12.6065 15.1693 12.687 14.9056 12.6875 14.6357V13.189H13.8594C14.2945 13.189 14.7118 13.0161 15.0195 12.7084C15.3271 12.4007 15.5 11.9833 15.5 11.5481V2.64082ZM13.8594 2.40642C13.9215 2.40642 13.9811 2.43111 14.0251 2.47507C14.0691 2.51903 14.0938 2.57865 14.0938 2.64082V11.5481C14.0938 11.6775 13.9887 11.7825 13.8594 11.7825H11.9844C11.7979 11.7825 11.6191 11.8566 11.4872 11.9885C11.3553 12.1204 11.2812 12.2992 11.2812 12.4858V14.5391L8.73125 11.9888C8.59951 11.8569 8.42079 11.7827 8.23438 11.7825H2.14062C2.07846 11.7825 2.01885 11.7578 1.9749 11.7139C1.93094 11.6699 1.90625 11.6103 1.90625 11.5481V2.64082C1.90625 2.57865 1.93094 2.51903 1.9749 2.47507C2.01885 2.43111 2.07846 2.40642 2.14062 2.40642H13.8594ZM7.29688 4.51605V6.86008C7.29688 7.04658 7.37095 7.22544 7.50282 7.35732C7.63468 7.4892 7.81352 7.56329 8 7.56329C8.18648 7.56329 8.36532 7.4892 8.49718 7.35732C8.62905 7.22544 8.70312 7.04658 8.70312 6.86008V4.51605C8.70312 4.32954 8.62905 4.15068 8.49718 4.0188C8.36532 3.88692 8.18648 3.81284 8 3.81284C7.81352 3.81284 7.63468 3.88692 7.50282 4.0188C7.37095 4.15068 7.29688 4.32954 7.29688 4.51605ZM7.0625 9.43851C7.0625 9.68718 7.16127 9.92567 7.33709 10.1015C7.5129 10.2773 7.75136 10.3761 8 10.3761C8.24864 10.3761 8.4871 10.2773 8.66291 10.1015C8.83873 9.92567 8.9375 9.68718 8.9375 9.43851C8.9375 9.18984 8.83873 8.95136 8.66291 8.77552C8.4871 8.59968 8.24864 8.5009 8 8.5009C7.75136 8.5009 7.5129 8.59968 7.33709 8.77552C7.16127 8.95136 7.0625 9.18984 7.0625 9.43851Z" fill="#FF5694"/>
</svg>
