<svg width="16" height="16" viewBox="0 0 16 16" fill="none" xmlns="http://www.w3.org/2000/svg">
<path fill-rule="evenodd" clip-rule="evenodd" d="M10.7924 4.51458L9.9563 2.43204C9.24807 0.668487 6.75239 0.668487 6.04416 2.43204L5.20805 4.51458L2.96883 4.66634C1.07319 4.79492 0.301723 7.16834 1.76034 8.38667L3.48174 9.82561L2.93441 12.0023C2.47068 13.8452 4.48999 15.3116 6.09967 14.3019L8.00023 13.1089L9.90079 14.3019C11.5098 15.3123 13.5298 13.8452 13.0661 12.0023L12.518 9.82561L14.2408 8.38667C15.6987 7.16834 14.9273 4.79492 13.0323 4.66634L10.7924 4.51458ZM8.65225 2.95478C8.41617 2.3674 7.58428 2.3674 7.34821 2.95478L6.34769 5.44835C6.29845 5.57095 6.21564 5.67719 6.10876 5.75486C6.00188 5.83254 5.87526 5.8785 5.74344 5.88748L3.06369 6.06875C2.43134 6.11161 2.17488 6.90345 2.66039 7.30956L4.72185 9.03096C4.82315 9.11573 4.8985 9.22734 4.93926 9.35298C4.98003 9.47862 4.98454 9.61321 4.9523 9.7413L4.29747 12.3459C4.1429 12.96 4.816 13.449 5.35209 13.1124L7.62644 11.6847C7.73842 11.6144 7.86798 11.577 8.00023 11.577C8.13248 11.577 8.26204 11.6144 8.37402 11.6847L10.6484 13.1124C11.1845 13.4497 11.8576 12.96 11.703 12.3466L11.0482 9.742C11.0158 9.61381 11.0202 9.47907 11.061 9.35329C11.1018 9.22751 11.1772 9.11579 11.2786 9.03096L13.3401 7.30956C13.8256 6.90275 13.5684 6.11161 12.9368 6.06875L10.2577 5.88748C10.1259 5.8785 9.99928 5.83254 9.8924 5.75486C9.78553 5.67719 9.70271 5.57095 9.65347 5.44835L8.65155 2.95478H8.65225Z" fill="#444444"/>
</svg>
