<svg width="16" height="16" viewBox="0 0 16 16" fill="none" xmlns="http://www.w3.org/2000/svg">
<path d="M6.12454 1.25H9.87464C10.173 1.25 10.4592 1.36853 10.6702 1.57951C10.8811 1.7905 10.9997 2.07665 10.9997 2.37503C10.9997 3.07124 10.7231 3.73894 10.2308 4.23124C9.73851 4.72353 9.07082 5.0001 8.3746 5.0001H7.62458C6.92837 5.0001 6.26067 4.72353 5.76838 4.23124C5.27608 3.73894 4.99951 3.07124 4.99951 2.37503C4.99951 2.07665 5.11804 1.7905 5.32903 1.57951C5.54001 1.36853 5.82617 1.25 6.12454 1.25Z" stroke="#444444" stroke-width="1.3" stroke-linecap="round" stroke-linejoin="round"/>
<path d="M1.99951 11.7502V11.0002C1.99951 9.40882 2.63167 7.88266 3.75692 6.75741C4.88217 5.63216 6.40833 5 7.99967 5C9.59102 5 11.1172 5.63216 12.2424 6.75741C13.3677 7.88266 13.9998 9.40882 13.9998 11.0002V11.7502C13.9998 12.5459 13.6838 13.3089 13.1211 13.8716C12.5585 14.4342 11.7954 14.7503 10.9998 14.7503H4.99959C4.20392 14.7503 3.44084 14.4342 2.87822 13.8716C2.31559 13.3089 1.99951 12.5459 1.99951 11.7502Z" stroke="#444444" stroke-width="1.3" stroke-linecap="round" stroke-linejoin="round"/>
</svg>
