<svg width="16" height="16" viewBox="0 0 16 16" fill="none" xmlns="http://www.w3.org/2000/svg">
<path d="M5.52043 1.30078H9.03904C9.31899 1.30078 9.58748 1.41199 9.78544 1.60995C9.98341 1.80791 10.0946 2.07641 10.0946 2.35636C10.0946 3.0096 9.83512 3.63608 9.37321 4.09799C8.91131 4.55989 8.28483 4.81939 7.63159 4.81939H6.92787C6.27463 4.81939 5.64815 4.55989 5.18625 4.09799C4.72434 3.63608 4.46484 3.0096 4.46484 2.35636C4.46484 2.07641 4.57606 1.80791 4.77402 1.60995C4.97198 1.41199 5.24047 1.30078 5.52043 1.30078Z" stroke="#FF5694" stroke-width="1.3" stroke-linecap="round" stroke-linejoin="round"/>
<path d="M7.63154 13.9662H4.46479C3.71824 13.9662 3.00226 13.6696 2.47436 13.1417C1.94647 12.6138 1.6499 11.8979 1.6499 11.1513V10.4476C1.64959 9.206 2.05973 7.99915 2.81647 7.01484C3.57321 6.03053 4.63411 5.32399 5.83406 5.00518C7.034 4.68636 8.30569 4.77316 9.45119 5.25206C10.5967 5.73096 11.5517 6.5751 12.1677 7.6531M10.0946 12.5587H14.3169M14.3169 12.5587L12.2057 10.4476M14.3169 12.5587L12.2057 14.6699" stroke="#FF5694" stroke-width="1.3" stroke-linecap="round" stroke-linejoin="round"/>
</svg>
