<svg width="28" height="28" viewBox="0 0 28 28" fill="none" xmlns="http://www.w3.org/2000/svg">
<path d="M21 15.1644H15.1667V20.9977C15.1667 21.3071 15.0438 21.6039 14.825 21.8227C14.6062 22.0415 14.3094 22.1644 14 22.1644C13.6906 22.1644 13.3938 22.0415 13.1751 21.8227C12.9563 21.6039 12.8333 21.3071 12.8333 20.9977V15.1644H7.00001C6.69059 15.1644 6.39384 15.0415 6.17505 14.8227C5.95626 14.6039 5.83334 14.3071 5.83334 13.9977C5.83334 13.6883 5.95626 13.3916 6.17505 13.1728C6.39384 12.954 6.69059 12.8311 7.00001 12.8311H12.8333V6.99772C12.8333 6.6883 12.9563 6.39156 13.1751 6.17276C13.3938 5.95397 13.6906 5.83105 14 5.83105C14.3094 5.83105 14.6062 5.95397 14.825 6.17276C15.0438 6.39156 15.1667 6.6883 15.1667 6.99772V12.8311H21C21.3094 12.8311 21.6062 12.954 21.825 13.1728C22.0438 13.3916 22.1667 13.6883 22.1667 13.9977C22.1667 14.3071 22.0438 14.6039 21.825 14.8227C21.6062 15.0415 21.3094 15.1644 21 15.1644Z" fill="#444444"/>
</svg>
