<svg width="28" height="28" viewBox="0 0 28 28" fill="none" xmlns="http://www.w3.org/2000/svg">
<path d="M5.83333 11.667C4.55 11.667 3.5 12.717 3.5 14.0003C3.5 15.2837 4.55 16.3337 5.83333 16.3337C7.11667 16.3337 8.16667 15.2837 8.16667 14.0003C8.16667 12.717 7.11667 11.667 5.83333 11.667ZM22.1667 11.667C20.8833 11.667 19.8333 12.717 19.8333 14.0003C19.8333 15.2837 20.8833 16.3337 22.1667 16.3337C23.45 16.3337 24.5 15.2837 24.5 14.0003C24.5 12.717 23.45 11.667 22.1667 11.667ZM14 11.667C12.7167 11.667 11.6667 12.717 11.6667 14.0003C11.6667 15.2837 12.7167 16.3337 14 16.3337C15.2833 16.3337 16.3333 15.2837 16.3333 14.0003C16.3333 12.717 15.2833 11.667 14 11.667Z" fill="#444444"/>
</svg>
