<svg width="20" height="20" viewBox="0 0 20 20" fill="none" xmlns="http://www.w3.org/2000/svg">
<rect width="20" height="20" rx="2" fill="#2B7FFF"/>
<path d="M11.9192 12.6249H15.0983C15.1335 12.6229 15.167 12.6092 15.1934 12.5859C15.2198 12.5626 15.2377 12.5312 15.2442 12.4966V8.24992C15.2442 7.9405 15.1212 7.64375 14.9025 7.42496C14.6837 7.20617 14.3869 7.08325 14.0775 7.08325H11.3358C11.2972 7.08325 11.2601 7.09862 11.2327 7.12597C11.2054 7.15331 11.19 7.19041 11.19 7.22909V7.37492C11.19 7.76169 11.0364 8.13263 10.7629 8.40612C10.4894 8.67961 10.1184 8.83325 9.73167 8.83325C9.34489 8.83325 8.97396 8.67961 8.70047 8.40612C8.42698 8.13263 8.27333 7.76169 8.27333 7.37492V7.22909C8.27333 7.19041 8.25797 7.15331 8.23062 7.12597C8.20327 7.09862 8.16618 7.08325 8.1275 7.08325H5.91667C5.60725 7.08325 5.3105 7.20617 5.09171 7.42496C4.87292 7.64375 4.75 7.9405 4.75 8.24992V15.8333C4.75 16.1427 4.87292 16.4394 5.09171 16.6582C5.3105 16.877 5.60725 16.9999 5.91667 16.9999H10.7642C10.8008 16.997 10.8349 16.9803 10.8598 16.9533C10.8847 16.9263 10.8985 16.8908 10.8983 16.8541V13.6458C10.8983 13.375 11.0059 13.1154 11.1973 12.9239C11.3888 12.7325 11.6484 12.6249 11.9192 12.6249ZM9.0025 14.0833H7.2525C7.13647 14.0833 7.02519 14.0372 6.94314 13.9551C6.86109 13.8731 6.815 13.7618 6.815 13.6458C6.815 13.5297 6.86109 13.4184 6.94314 13.3364C7.02519 13.2543 7.13647 13.2083 7.2525 13.2083H9.0025C9.11853 13.2083 9.22981 13.2543 9.31186 13.3364C9.39391 13.4184 9.44 13.5297 9.44 13.6458C9.44 13.7618 9.39391 13.8731 9.31186 13.9551C9.22981 14.0372 9.11853 14.0833 9.0025 14.0833ZM7.2525 11.4583C7.13647 11.4583 7.02519 11.4122 6.94314 11.3301C6.86109 11.2481 6.815 11.1368 6.815 11.0208C6.815 10.9047 6.86109 10.7934 6.94314 10.7114C7.02519 10.6293 7.13647 10.5833 7.2525 10.5833H12.7942C12.9102 10.5833 13.0215 10.6293 13.1035 10.7114C13.1856 10.7934 13.2317 10.9047 13.2317 11.0208C13.2317 11.1368 13.1856 11.2481 13.1035 11.3301C13.0215 11.4122 12.9102 11.4583 12.7942 11.4583H7.2525Z" fill="white"/>
<path d="M14.6139 13.7508C14.6345 13.7296 14.6487 13.7031 14.6549 13.6742C14.6611 13.6453 14.659 13.6153 14.6489 13.5875C14.6376 13.5614 14.6188 13.5392 14.5949 13.5237C14.5711 13.5081 14.5432 13.4999 14.5148 13.5H11.9189C11.8803 13.5 11.8432 13.5154 11.8158 13.5427C11.7885 13.5701 11.7731 13.6072 11.7731 13.6458V16.2475C11.773 16.276 11.7812 16.3038 11.7968 16.3277C11.8123 16.3515 11.8345 16.3703 11.8606 16.3817C11.8868 16.3927 11.9157 16.3958 11.9437 16.3906C11.9717 16.3855 11.9976 16.3722 12.0181 16.3525L14.6139 13.7508ZM9.05478 6.36584C9.08152 6.37696 9.10452 6.3955 9.12106 6.41927C9.1376 6.44305 9.14699 6.47106 9.14811 6.5V7.375C9.14811 7.52971 9.20957 7.67809 9.31897 7.78748C9.42836 7.89688 9.57674 7.95834 9.73144 7.95834C9.88615 7.95834 10.0345 7.89688 10.1439 7.78748C10.2533 7.67809 10.3148 7.52971 10.3148 7.375V6.5C10.3147 6.47154 10.3229 6.44367 10.3385 6.41983C10.354 6.39599 10.3762 6.37722 10.4023 6.36584C10.7217 6.23327 10.9947 6.00904 11.1867 5.72146C11.3788 5.43387 11.4813 5.09583 11.4814 4.75C11.4811 4.4335 11.3949 4.12302 11.2321 3.85162C11.0692 3.58022 10.8359 3.35806 10.5568 3.20879C10.2777 3.05953 9.96332 2.98874 9.64719 3.00398C9.33106 3.01922 9.02497 3.11991 8.76153 3.29533C8.49809 3.47074 8.28715 3.71432 8.15117 4.00013C8.0152 4.28593 7.95928 4.60326 7.98937 4.91833C8.01946 5.2334 8.13444 5.53441 8.32205 5.78931C8.50966 6.04421 8.76289 6.24346 9.05478 6.36584Z" fill="white"/>
</svg>
