<svg width="20" height="20" viewBox="0 0 20 20" fill="none" xmlns="http://www.w3.org/2000/svg">
<rect width="20" height="20" rx="2" fill="#444444"/>
<g clip-path="url(#clip0_1117_3895)">
<path d="M16 7.78947C16 7.67487 15.9703 7.56243 15.9142 7.46421L14.2888 4.61263C14.1817 4.42622 14.0309 4.27194 13.8508 4.16465C13.6707 4.05735 13.4674 4.00065 13.2604 4H6.7396C6.3208 4 5.9266 4.23495 5.7112 4.61326L4.0858 7.46421C4.02969 7.56243 4.00003 7.67487 4 7.78947C4 8.42421 4.2316 8.99832 4.6 9.44295V15.3684C4.6 15.5359 4.66321 15.6966 4.77574 15.815C4.88826 15.9335 5.04087 16 5.2 16H10C10.1591 16 10.3117 15.9335 10.4243 15.815C10.5368 15.6966 10.6 15.5359 10.6 15.3684V12.2105H13V15.3684C13 15.5359 13.0632 15.6966 13.1757 15.815C13.2883 15.9335 13.4409 16 13.6 16H14.8C14.9591 16 15.1117 15.9335 15.2243 15.815C15.3368 15.6966 15.4 15.5359 15.4 15.3684V9.44295C15.7684 8.99832 16 8.42421 16 7.78947ZM14.7904 7.948C14.7537 8.2531 14.6126 8.53365 14.3934 8.73701C14.1743 8.94038 13.8922 9.0526 13.6 9.05263C12.9382 9.05263 12.4 8.4861 12.4 7.78947C12.4 7.74653 12.385 7.70863 12.3766 7.66821L12.3886 7.66568L11.932 5.26316H13.2604L14.7904 7.948ZM8.8042 7.83053L9.2914 5.26316H10.708L11.1958 7.83053C11.1748 8.50821 10.648 9.05263 10 9.05263C9.352 9.05263 8.8252 8.50821 8.8042 7.83053ZM6.7396 5.26316H8.068L7.612 7.66568L7.624 7.66821C7.615 7.70863 7.6 7.74653 7.6 7.78947C7.6 8.4861 7.0618 9.05263 6.4 9.05263C6.10784 9.0526 5.82573 8.94038 5.60657 8.73701C5.38741 8.53365 5.24627 8.2531 5.2096 7.948L6.7396 5.26316ZM8.8 12.8421H6.4V10.9474H8.8V12.8421Z" fill="white"/>
</g>
<defs>
<clipPath id="clip0_1117_3895">
<rect width="12" height="12" fill="white" transform="translate(4 4)"/>
</clipPath>
</defs>
</svg>
