<svg width="28" height="28" viewBox="0 0 28 28" fill="none" xmlns="http://www.w3.org/2000/svg">
<path d="M15.9412 17.3596V7.1725M15.9412 17.3596L23.064 21.3645C23.2608 21.4751 23.4836 21.5329 23.7103 21.5321C23.9369 21.5314 24.1593 21.4721 24.3553 21.3602C24.5514 21.2483 24.7141 21.0877 24.8272 20.8944C24.9403 20.7012 24.9999 20.4822 25 20.2592V4.27298C24.9999 4.04999 24.9403 3.83092 24.8272 3.6377C24.7141 3.44448 24.5514 3.28388 24.3553 3.17197C24.1593 3.06006 23.9369 3.00076 23.7103 3.00001C23.4836 2.99925 23.2608 3.05707 23.064 3.16768L15.9412 7.1725M15.9412 17.3596H12.0588M15.9412 7.1725H8.17647C6.80359 7.1725 5.48693 7.70914 4.51615 8.66437C3.54538 9.6196 3 10.9152 3 12.2661C3 13.617 3.54538 14.9125 4.51615 15.8678C5.48693 16.823 6.80359 17.3596 8.17647 17.3596M12.0588 17.3596V23.0899C12.0588 23.5965 11.8543 24.0823 11.4903 24.4405C11.1262 24.7988 10.6325 25 10.1176 25C9.60282 25 9.10907 24.7988 8.74503 24.4405C8.38099 24.0823 8.17647 23.5965 8.17647 23.0899V17.3596M12.0588 17.3596H8.17647" stroke="#444444" stroke-width="2.2" stroke-linecap="round" stroke-linejoin="round"/>
</svg>
