<svg width="28" height="28" viewBox="0 0 28 28" fill="none" xmlns="http://www.w3.org/2000/svg">
<path d="M18.7073 3.51762C19.3355 2.88925 20.1792 2.52333 21.0673 2.49409C21.9553 2.46484 22.8213 2.77445 23.4895 3.36012L23.6575 3.51762L24.4823 4.34245C25.1103 4.97061 25.476 5.81406 25.5053 6.70185C25.5345 7.58963 25.2251 8.45532 24.6398 9.12345L24.4823 9.29145L11.4016 22.3733C11.2167 22.5582 10.9926 22.6993 10.746 22.7863L10.557 22.8411L5.36063 24.0405C5.17855 24.0828 4.98897 24.0808 4.80785 24.0345C4.62672 23.9883 4.45936 23.8992 4.31985 23.7748C4.18034 23.6504 4.07276 23.4943 4.00619 23.3196C3.93961 23.1449 3.91598 22.9568 3.93729 22.7711L3.96063 22.6393L5.15879 17.4418C5.21798 17.1869 5.3336 16.9484 5.49713 16.7441L5.62663 16.5983L18.7073 3.51762ZM17.8825 7.64178L7.39413 18.1301L6.65213 21.3478L9.86979 20.6046L20.3581 10.1163L17.8825 7.64178ZM22.0078 5.16728C21.8069 4.96641 21.5396 4.84574 21.2561 4.82791C20.9726 4.81009 20.6923 4.89633 20.4678 5.07045L20.3581 5.16728L19.5321 5.99212L22.0078 8.46662L22.8326 7.64178C23.0335 7.44089 23.1542 7.17361 23.172 6.89008C23.1898 6.60655 23.1036 6.32626 22.9295 6.10178L22.8326 5.99212L22.0078 5.16728Z" fill="#444444"/>
</svg>
