<svg width="28" height="28" viewBox="0 0 28 28" fill="none" xmlns="http://www.w3.org/2000/svg">
<path d="M10.9799 11.5409C10.9905 11.1364 11.0813 10.738 11.2471 10.3689C11.4128 9.99973 11.6501 9.66714 11.9453 9.39039C12.2405 9.11364 12.5877 8.89823 12.9668 8.75663C13.3458 8.61504 13.7492 8.55009 14.1536 8.56553C14.5579 8.58098 14.9552 8.67652 15.3223 8.84662C15.6895 9.01671 16.0192 9.25799 16.2924 9.55645C16.5657 9.85492 16.7769 10.2046 16.914 10.5854C17.0511 10.9661 17.1112 11.3702 17.091 11.7743C17.0852 12.1715 17.0002 12.5635 16.8409 12.9273C16.6816 13.2911 16.4512 13.6194 16.1633 13.893C15.8754 14.1666 15.5357 14.3799 15.1642 14.5204C14.7927 14.661 14.3969 14.7259 14 14.7113V16.4444M13.9878 20.1209H14M25 14C25 15.4445 24.7155 16.8749 24.1627 18.2095C23.6099 19.5441 22.7996 20.7567 21.7782 21.7782C20.7567 22.7996 19.5441 23.6099 18.2095 24.1627C16.8749 24.7155 15.4445 25 14 25C12.5555 25 11.1251 24.7155 9.79048 24.1627C8.4559 23.6099 7.24327 22.7996 6.22183 21.7782C5.20038 20.7567 4.39013 19.5441 3.83733 18.2095C3.28452 16.8749 3 15.4445 3 14C3 11.0826 4.15893 8.28473 6.22183 6.22183C8.28473 4.15893 11.0826 3 14 3C16.9174 3 19.7153 4.15893 21.7782 6.22183C23.8411 8.28473 25 11.0826 25 14Z" stroke="#444444" stroke-width="2.2" stroke-linecap="round" stroke-linejoin="round"/>
</svg>
