<svg width="28" height="28" viewBox="0 0 28 28" fill="none" xmlns="http://www.w3.org/2000/svg">
<path fill-rule="evenodd" clip-rule="evenodd" d="M12.2035 1.45801H15.7968C17.667 1.45801 19.1335 1.45801 20.3048 1.56884C21.4983 1.68317 22.476 1.91884 23.3382 2.44617C24.2412 2.99944 25.0004 3.75865 25.5537 4.66167C26.081 5.52267 26.3167 6.50151 26.431 7.69501C26.5418 8.86634 26.5418 10.3328 26.5418 12.2042V13.449C26.5418 14.7802 26.5418 15.8243 26.4835 16.6678C26.4252 17.5253 26.305 18.2393 26.0308 18.8997C25.6937 19.7136 25.1996 20.4532 24.5766 21.0761C23.9537 21.6991 23.2141 22.1932 22.4002 22.5303C21.461 22.92 20.3923 23.0063 18.927 23.032C18.5653 23.0307 18.2037 23.0447 17.8432 23.074C17.6122 23.0997 17.5223 23.137 17.4698 23.1673C17.415 23.2 17.3392 23.2583 17.2085 23.438C17.0673 23.6317 16.9075 23.9 16.6532 24.3293L16.0208 25.398C15.119 26.9228 12.8825 26.9228 11.9795 25.398L11.3472 24.3293C11.1743 24.0248 10.989 23.7274 10.7918 23.438C10.6612 23.2583 10.5853 23.2 10.5305 23.1673C10.478 23.137 10.3882 23.0997 10.1572 23.074C9.90983 23.0472 9.5855 23.039 9.07216 23.0308C7.608 23.0063 6.53933 22.92 5.60016 22.5303C4.78623 22.1932 4.04667 21.6991 3.42372 21.0761C2.80077 20.4532 2.30662 19.7136 1.9695 18.8997C1.69533 18.2393 1.57516 17.5253 1.51566 16.6678C1.4585 15.8243 1.4585 14.7802 1.4585 13.4478V12.2042C1.4585 10.3328 1.4585 8.86751 1.56933 7.69501C1.68366 6.50151 1.91933 5.52267 2.44666 4.66167C2.99993 3.75865 3.75914 2.99944 4.66216 2.44617C5.52316 1.91884 6.502 1.68317 7.6955 1.56884C8.86683 1.45801 10.3333 1.45801 12.2047 1.45801M7.86233 3.31184C6.796 3.41334 6.11816 3.60701 5.57683 3.93834C4.90916 4.34735 4.34784 4.90867 3.93883 5.57634C3.6075 6.11767 3.41383 6.79551 3.31233 7.86301C3.20966 8.94101 3.2085 10.3247 3.2085 12.2508V13.4175C3.2085 14.7883 3.2085 15.773 3.26216 16.55C3.31466 17.3188 3.415 17.8205 3.5865 18.2312C4.08974 19.446 5.05495 20.4113 6.26983 20.9145C6.87066 21.1642 7.63833 21.2575 9.10366 21.2832H9.13983C9.60416 21.2913 10.0113 21.2983 10.3497 21.3357C10.7125 21.3765 11.0683 21.457 11.4102 21.6553C11.7485 21.8537 11.9935 22.1162 12.2058 22.4078C12.403 22.6785 12.6048 23.0203 12.8335 23.4065L13.4857 24.5078C13.5402 24.5951 13.616 24.6671 13.706 24.717C13.796 24.7669 13.8973 24.793 14.0002 24.793C14.1031 24.793 14.2043 24.7669 14.2943 24.717C14.3843 24.6671 14.4601 24.5951 14.5147 24.5078L15.1668 23.4065C15.3955 23.0203 15.5985 22.6785 15.7945 22.4078C16.0068 22.1162 16.2518 21.8525 16.5902 21.6553C16.932 21.457 17.2878 21.3753 17.6507 21.3357C17.989 21.2983 18.3962 21.2913 18.8605 21.2832H18.8978C20.362 21.2575 21.1297 21.1642 21.7305 20.9145C22.9454 20.4113 23.9106 19.446 24.4138 18.2312C24.5853 17.8205 24.6857 17.3188 24.7382 16.55C24.7918 15.773 24.7918 14.7883 24.7918 13.4175V12.2508C24.7918 10.3247 24.7918 8.94101 24.688 7.86184C24.5865 6.79551 24.3928 6.11767 24.0615 5.57634C23.6527 4.90923 23.0918 4.34833 22.4247 3.93951C21.8833 3.60817 21.2055 3.41451 20.138 3.31301C19.06 3.21034 17.6763 3.20917 15.7502 3.20917H12.2502C10.324 3.20917 8.94033 3.20917 7.86116 3.31301M8.4585 10.4997C8.4585 10.2676 8.55068 10.0451 8.71478 9.88096C8.87887 9.71686 9.10143 9.62467 9.3335 9.62467H18.6668C18.8989 9.62467 19.1215 9.71686 19.2855 9.88096C19.4496 10.0451 19.5418 10.2676 19.5418 10.4997C19.5418 10.7317 19.4496 10.9543 19.2855 11.1184C19.1215 11.2825 18.8989 11.3747 18.6668 11.3747H9.3335C9.10143 11.3747 8.87887 11.2825 8.71478 11.1184C8.55068 10.9543 8.4585 10.7317 8.4585 10.4997ZM8.4585 14.583C8.4585 14.3509 8.55068 14.1284 8.71478 13.9643C8.87887 13.8002 9.10143 13.708 9.3335 13.708H15.7502C15.9822 13.708 16.2048 13.8002 16.3689 13.9643C16.533 14.1284 16.6252 14.3509 16.6252 14.583C16.6252 14.8151 16.533 15.0376 16.3689 15.2017C16.2048 15.3658 15.9822 15.458 15.7502 15.458H9.3335C9.10143 15.458 8.87887 15.3658 8.71478 15.2017C8.55068 15.0376 8.4585 14.8151 8.4585 14.583Z" fill="#444444"/>
<path d="M15.7964 1.20801C17.4287 1.20801 18.7664 1.20809 19.8696 1.2832L20.3286 1.32031C21.5402 1.43638 22.5605 1.67732 23.4683 2.23242L23.4692 2.2334C24.4057 2.80726 25.1933 3.59474 25.7671 4.53125C26.3224 5.43798 26.5641 6.45943 26.6802 7.6709V7.67188C26.7923 8.85757 26.7915 10.3376 26.7915 12.2041V13.4492C26.7915 14.777 26.792 15.8315 26.7329 16.6855C26.6737 17.5551 26.551 18.2994 26.2622 18.9951C25.9125 19.8394 25.3996 20.6068 24.7534 21.2529C24.1073 21.8991 23.3399 22.412 22.4956 22.7617C21.5084 23.1712 20.3964 23.2566 18.9312 23.2822H18.9263C18.5717 23.281 18.2171 23.2946 17.8638 23.3232C17.6648 23.3459 17.61 23.3749 17.5962 23.3828C17.5827 23.3909 17.5506 23.4118 17.4878 23.4863L17.4106 23.585C17.2782 23.7667 17.1256 24.0233 16.8687 24.457L16.2358 25.5254C15.2684 27.161 12.9178 27.2117 11.8628 25.6787L11.7642 25.5254L11.1323 24.457L11.1294 24.4531C10.9611 24.1566 10.7811 23.8668 10.5894 23.585C10.4742 23.4267 10.4218 23.3936 10.4038 23.3828C10.3895 23.3746 10.3329 23.3449 10.1294 23.3223V23.3213C9.89593 23.296 9.58374 23.2895 9.06787 23.2812C7.69486 23.2583 6.63202 23.1811 5.69092 22.834L5.50439 22.7617C4.66013 22.412 3.89275 21.8991 3.24658 21.2529C2.60049 20.6068 2.08843 19.8393 1.73877 18.9951C1.44991 18.2993 1.32647 17.5551 1.26611 16.6855V16.6846C1.20826 15.8308 1.2085 14.7771 1.2085 13.4482V12.2041C1.2085 10.3376 1.20864 8.85874 1.3208 7.67188V7.6709C1.43689 6.45936 1.67852 5.43802 2.23389 4.53125C2.80776 3.5946 3.59509 2.80727 4.53174 2.2334C5.43851 1.67803 6.45985 1.4364 7.67139 1.32031H7.67236C8.85786 1.20817 10.3376 1.20898 12.2036 1.20898V1.20801H15.7964ZM12.2046 1.45801C10.3335 1.45801 8.86706 1.45756 7.6958 1.56836C6.50242 1.68268 5.52353 1.91907 4.6626 2.44629C3.75957 2.99956 3.00004 3.75908 2.44678 4.66211C1.91956 5.52305 1.68317 6.50194 1.56885 7.69531C1.45805 8.86774 1.4585 10.333 1.4585 12.2041V13.4482C1.4585 14.7804 1.45895 15.8246 1.51611 16.668C1.57561 17.5253 1.69518 18.2392 1.96924 18.8994C2.30634 19.7133 2.80046 20.4533 3.42334 21.0762C4.04627 21.6991 4.7862 22.1931 5.6001 22.5303C6.53918 22.9199 7.6078 23.0067 9.07178 23.0312C9.58484 23.0394 9.90946 23.0474 10.1567 23.0742C10.3877 23.0999 10.4783 23.1367 10.5308 23.167C10.5856 23.1997 10.6609 23.2589 10.7915 23.4385C10.9886 23.7278 11.1744 24.0247 11.3472 24.3291L11.98 25.3984C12.8831 26.9227 15.1192 26.9228 16.021 25.3984L16.6528 24.3291C16.907 23.9 17.0674 23.6321 17.2085 23.4385C17.3392 23.2588 17.4154 23.1997 17.4702 23.167C17.5228 23.1367 17.6129 23.0998 17.8433 23.0742C18.2038 23.045 18.5656 23.0309 18.9272 23.0322C20.3923 23.0066 21.4608 22.9198 22.3999 22.5303C23.2138 22.1931 23.9537 21.6991 24.5767 21.0762C25.1996 20.4532 25.6936 19.7133 26.0308 18.8994C26.3049 18.2392 26.4256 17.5253 26.4839 16.668C26.5422 15.8245 26.5415 14.7803 26.5415 13.4492V12.2041C26.5415 10.333 26.542 8.86658 26.4312 7.69531C26.3168 6.50187 26.0805 5.52308 25.5532 4.66211C25 3.75915 24.2413 2.99955 23.3384 2.44629C22.4763 1.919 21.4985 1.6827 20.3052 1.56836C19.1338 1.45753 17.6666 1.45801 15.7964 1.45801H12.2046ZM15.7505 3.20898C17.6765 3.20898 19.0602 3.21082 20.1382 3.31348C21.2054 3.41497 21.8831 3.60825 22.4243 3.93945C23.0913 4.34821 23.6522 4.9092 24.061 5.57617C24.3924 6.11751 24.5865 6.79597 24.688 7.8623C24.7918 8.9414 24.7915 10.3251 24.7915 12.251V13.418C24.7915 14.7885 24.7914 15.7729 24.7378 16.5498C24.6853 17.3186 24.5851 17.8208 24.4136 18.2314C23.9104 19.446 22.9455 20.4108 21.731 20.9141C21.1301 21.1637 20.362 21.2575 18.8979 21.2832H18.8608C18.3966 21.2914 17.9892 21.2986 17.6509 21.3359C17.2881 21.3756 16.9321 21.457 16.5903 21.6553C16.252 21.8524 16.0068 22.1165 15.7944 22.4082C15.5985 22.6788 15.3951 23.0202 15.1665 23.4062L14.5151 24.5078C14.4606 24.595 14.3844 24.6669 14.2944 24.7168C14.2045 24.7666 14.1033 24.7929 14.0005 24.793C13.8976 24.793 13.7956 24.7667 13.7056 24.7168C13.6158 24.6669 13.5403 24.5949 13.4858 24.5078L12.8335 23.4062C12.6049 23.0202 12.4027 22.6788 12.2056 22.4082C11.9933 22.1166 11.7488 21.8536 11.4106 21.6553C11.069 21.457 10.7128 21.3768 10.3501 21.3359C10.0118 21.2986 9.60434 21.2914 9.14014 21.2832H9.104C7.63867 21.2575 6.87085 21.1637 6.27002 20.9141C5.05521 20.4109 4.08969 19.4462 3.58643 18.2314C3.41493 17.8208 3.31471 17.3186 3.26221 16.5498C3.20856 15.7729 3.2085 14.7884 3.2085 13.418V12.251C3.2085 10.325 3.20937 8.94124 3.31201 7.86328C3.41351 6.79578 3.60763 6.11751 3.93896 5.57617C4.34793 4.90864 4.90913 4.34744 5.57666 3.93848C6.05029 3.64858 6.62859 3.46409 7.47998 3.35449L7.86084 3.31348C8.94001 3.20964 10.3243 3.20898 12.2505 3.20898H15.7505ZM12.2505 3.45898C10.3193 3.45898 8.94959 3.45913 7.88525 3.56152L7.88428 3.56055C6.83725 3.66035 6.20264 3.84838 5.70752 4.15137C5.07351 4.53975 4.54024 5.07302 4.15186 5.70703C3.84871 6.20241 3.6608 6.8375 3.56104 7.88672C3.45976 8.95011 3.4585 10.32 3.4585 12.251V13.418C3.4585 14.7922 3.45831 15.7669 3.51123 16.5332C3.56289 17.2895 3.66054 17.7603 3.81689 18.1348L3.81787 18.1357C4.29578 19.2892 5.21222 20.2058 6.36572 20.6836L6.58252 20.7637C7.11114 20.9357 7.82581 21.0107 9.10791 21.0332H9.14404L9.80127 21.0488C10.0079 21.0564 10.2013 21.0675 10.3774 21.0869L10.6655 21.1289C10.9549 21.1818 11.2482 21.2727 11.5356 21.4395H11.5366C11.9145 21.661 12.1832 21.9524 12.4077 22.2607C12.6134 22.5431 12.8218 22.8967 13.0483 23.2793L13.6968 24.375C13.7288 24.4263 13.7747 24.4687 13.8276 24.498C13.8805 24.5273 13.9401 24.543 14.0005 24.543C14.0609 24.5429 14.1205 24.5273 14.1733 24.498C14.2261 24.4687 14.2703 24.4262 14.3022 24.375L14.9517 23.2793C15.1786 22.8961 15.3881 22.5427 15.5923 22.2607L15.77 22.0332C15.958 21.8107 16.1805 21.6049 16.4644 21.4395L16.6089 21.3623C16.946 21.196 17.2891 21.1235 17.6235 21.0869C17.9757 21.0481 18.3957 21.0413 18.856 21.0332H18.8931C20.3575 21.0075 21.0819 20.9131 21.6343 20.6836H21.6353C22.7887 20.2057 23.7053 19.2892 24.1831 18.1357V18.1348C24.3395 17.7603 24.4371 17.2896 24.4888 16.5332C24.5417 15.7669 24.5415 14.7922 24.5415 13.418V12.251C24.5415 10.5611 24.5418 9.30134 24.4731 8.2998L24.439 7.88574C24.3392 6.8376 24.1514 6.20245 23.8481 5.70703C23.46 5.07362 22.9278 4.54054 22.2944 4.15234C21.7991 3.84916 21.1639 3.66131 20.1147 3.56152C19.0514 3.46025 17.6814 3.45898 15.7505 3.45898H12.2505ZM15.7505 13.458C16.0486 13.4581 16.3345 13.5764 16.5454 13.7871C16.7564 13.9981 16.8755 14.2846 16.8755 14.583C16.8755 14.8814 16.7564 15.1679 16.5454 15.3789C16.3345 15.5896 16.0486 15.7079 15.7505 15.708H9.3335C9.03513 15.708 8.74858 15.5899 8.5376 15.3789C8.32662 15.1679 8.2085 14.8814 8.2085 14.583C8.2085 14.2846 8.32662 13.9981 8.5376 13.7871C8.74858 13.5761 9.03513 13.458 9.3335 13.458H15.7505ZM9.3335 13.708C9.10143 13.708 8.87845 13.7998 8.71436 13.9639C8.55026 14.128 8.4585 14.3509 8.4585 14.583C8.4585 14.8151 8.55026 15.0381 8.71436 15.2021C8.87845 15.3662 9.10143 15.458 9.3335 15.458H15.7505C15.9823 15.4579 16.2047 15.366 16.3687 15.2021C16.5327 15.0381 16.6255 14.8151 16.6255 14.583C16.6255 14.3509 16.5327 14.128 16.3687 13.9639C16.2047 13.8001 15.9823 13.7081 15.7505 13.708H9.3335ZM18.6665 9.375C18.9649 9.375 19.2514 9.49312 19.4624 9.7041C19.6734 9.91508 19.7915 10.2016 19.7915 10.5C19.7914 10.7982 19.6732 11.084 19.4624 11.2949C19.2514 11.5059 18.9649 11.625 18.6665 11.625H9.3335C9.03513 11.625 8.74858 11.5059 8.5376 11.2949C8.3269 11.0841 8.20858 10.7981 8.2085 10.5C8.2085 10.2017 8.32672 9.91506 8.5376 9.7041C8.74858 9.49312 9.03513 9.375 9.3335 9.375H18.6665ZM9.3335 9.625C9.10143 9.625 8.87845 9.71677 8.71436 9.88086C8.55036 10.0449 8.4585 10.268 8.4585 10.5C8.45858 10.7318 8.55054 10.9542 8.71436 11.1182C8.87845 11.2823 9.10143 11.375 9.3335 11.375H18.6665C18.8986 11.375 19.1215 11.2823 19.2856 11.1182C19.4496 10.9542 19.5414 10.7319 19.5415 10.5C19.5415 10.2679 19.4497 10.045 19.2856 9.88086C19.1215 9.71677 18.8986 9.625 18.6665 9.625H9.3335Z" fill="#444444"/>
</svg>
