<svg width="28" height="28" viewBox="0 0 28 28" fill="none" xmlns="http://www.w3.org/2000/svg">
<path d="M13.9998 19.8346C13.381 19.8346 12.7875 19.5888 12.3499 19.1512C11.9123 18.7136 11.6665 18.1201 11.6665 17.5013C11.6665 16.2063 12.7048 15.168 13.9998 15.168C14.6187 15.168 15.2122 15.4138 15.6498 15.8514C16.0873 16.289 16.3332 16.8825 16.3332 17.5013C16.3332 18.1201 16.0873 18.7136 15.6498 19.1512C15.2122 19.5888 14.6187 19.8346 13.9998 19.8346ZM20.9998 23.3346V11.668H6.99984V23.3346H20.9998ZM20.9998 9.33463C21.6187 9.33463 22.2122 9.58047 22.6498 10.0181C23.0873 10.4556 23.3332 11.0491 23.3332 11.668V23.3346C23.3332 23.9535 23.0873 24.547 22.6498 24.9846C22.2122 25.4221 21.6187 25.668 20.9998 25.668H6.99984C6.381 25.668 5.78751 25.4221 5.34992 24.9846C4.91234 24.547 4.6665 23.9535 4.6665 23.3346V11.668C4.6665 10.373 5.70484 9.33463 6.99984 9.33463H8.1665V7.0013C8.1665 5.45421 8.78109 3.97047 9.87505 2.87651C10.969 1.78255 12.4527 1.16797 13.9998 1.16797C14.7659 1.16797 15.5244 1.31885 16.2322 1.612C16.9399 1.90516 17.583 2.33484 18.1246 2.87651C18.6663 3.41819 19.096 4.06125 19.3891 4.76898C19.6823 5.47671 19.8332 6.23526 19.8332 7.0013V9.33463H20.9998ZM13.9998 3.5013C13.0716 3.5013 12.1813 3.87005 11.525 4.52643C10.8686 5.18281 10.4998 6.07304 10.4998 7.0013V9.33463H17.4998V7.0013C17.4998 6.07304 17.1311 5.18281 16.4747 4.52643C15.8183 3.87005 14.9281 3.5013 13.9998 3.5013Z" fill="#444444"/>
</svg>
